<?xml version="1.0" encoding="UTF-8" standalone="no"?>
<svg
   xmlns:dc="http://purl.org/dc/elements/1.1/"
   xmlns:cc="http://creativecommons.org/ns#"
   xmlns:rdf="http://www.w3.org/1999/02/22-rdf-syntax-ns#"
   xmlns:svg="http://www.w3.org/2000/svg"
   xmlns="http://www.w3.org/2000/svg"
   viewBox="0 0 105.09333 73.040001"
   height="73.040001"
   width="105.09333"
   xml:space="preserve"
   id="svg2"
   version="1.1"><metadata
     id="metadata8"><rdf:RDF><cc:Work
         rdf:about=""><dc:format>image/svg+xml</dc:format><dc:type
           rdf:resource="http://purl.org/dc/dcmitype/StillImage" /></cc:Work></rdf:RDF></metadata><defs
     id="defs6"><clipPath
       id="clipPath20"
       clipPathUnits="userSpaceOnUse"><path
         id="path18"
         d="M 0,0 H 788 V 547.809 H 0 Z" /></clipPath></defs><g
     transform="matrix(1.3333333,0,0,-1.3333333,0,73.04)"
     id="g10"><g
       transform="scale(0.1)"
       id="g12"><g
         id="g14"><g
           clip-path="url(#clipPath20)"
           id="g16"><path
             id="path22"
             style="fill:#231f20;fill-opacity:1;fill-rule:nonzero;stroke:none"
             d="m 198.297,140.449 28.012,-46.9217 h 0.238 v 46.9217 h 7.101 V 83.4688 h -9.894 l -29.129,48.2032 h -0.156 V 83.4688 h -7.106 v 56.9802 h 10.934" /><path
             id="path24"
             style="fill:#231f20;fill-opacity:1;fill-rule:nonzero;stroke:none"
             d="m 245.582,83.4688 v 56.9802 h 36.152 v -6.863 H 253.559 V 116.27 h 26.097 v -6.864 H 253.559 V 90.332 h 28.812 v -6.8632 h -36.789" /><path
             id="path26"
             style="fill:#231f20;fill-opacity:1;fill-rule:nonzero;stroke:none"
             d="m 336.902,140.449 v -6.863 H 317.594 V 83.4688 h -7.981 v 50.1172 h -19.316 v 6.863 h 46.605" /><path
             id="path28"
             style="fill:#231f20;fill-opacity:1;fill-rule:nonzero;stroke:none"
             d="M 352.812,140.449 365.66,93.9258 h 0.399 l 11.336,46.5232 h 10.769 l 11.09,-46.5232 h 0.476 l 12.852,46.5232 h 7.824 L 403.969,83.4688 h -9.5 l -11.891,48.2032 h -0.562 L 370.289,83.4688 h -9.098 l -16.363,56.9802 h 7.984" /><path
             id="path30"
             style="fill:#231f20;fill-opacity:1;fill-rule:nonzero;stroke:none"
             d="m 453.941,88.4961 c 13.25,0 19.715,10.8516 19.715,23.4569 0,12.774 -6.543,23.469 -19.715,23.469 -13.164,0 -19.707,-10.695 -19.707,-23.469 0,-13.5624 7.176,-23.4569 19.707,-23.4569 z m -28.007,23.4569 c 0,17.805 10.613,29.856 28.007,29.856 16.68,0 28.016,-11.262 28.016,-29.856 0,-18.7499 -11.492,-29.8436 -28.016,-29.8436 -16.757,0 -28.007,11.4179 -28.007,29.8436" /><path
             id="path32"
             style="fill:#231f20;fill-opacity:1;fill-rule:nonzero;stroke:none"
             d="m 499.469,133.586 v -19.074 c 7.019,0 15.32,0 15.32,0 8.145,0 11.895,4.386 11.895,9.492 0,5.109 -3.672,9.582 -11.895,9.582 0,0 -10.137,0 -15.32,0 z m 15.398,-25.938 H 499.469 V 83.4688 h -7.981 v 56.9802 c 13.086,0 23.145,0 23.145,0 14.199,0 20.351,-7.187 20.351,-16.367 0,-11.805 -9.179,-14.355 -11.816,-14.922 0,0 0,-0.156 13.809,-25.6912 h -9.415 l -12.695,24.1792" /><path
             id="path34"
             style="fill:#231f20;fill-opacity:1;fill-rule:nonzero;stroke:none"
             d="m 552.906,83.4688 h -7.98 v 56.9802 h 7.98 v -24.265 h 0.078 l 23.946,24.265 h 10.937 l -25.781,-25.137 28.652,-31.8432 h -11.261 l -26.493,30.3982 h -0.078 V 83.4688" /><path
             id="path36"
             style="fill:#231f20;fill-opacity:1;fill-rule:nonzero;stroke:none"
             d="m 213.828,261.887 c 0,-13.047 -9.957,-49.102 -52.187,-49.102 -36.911,0 -60.254,24.551 -60.254,64.199 0,37.426 23.863,64.204 60.254,64.204 42.054,0 51.671,-31.758 51.839,-43.258 h -17.679 c -0.684,11.5 -10.125,29.527 -34.16,29.527 -28.325,0 -42.399,-23.004 -42.399,-50.473 0,-29.179 15.449,-50.468 42.399,-50.468 25.921,0 33.988,22.488 34.675,35.371 h 17.512" /><path
             id="path38"
             style="fill:#231f20;fill-opacity:1;fill-rule:nonzero;stroke:none"
             d="m 339.094,261.887 c 0,-13.047 -9.957,-49.102 -52.192,-49.102 -36.906,0 -60.254,24.551 -60.254,64.199 0,37.426 23.864,64.204 60.254,64.204 42.059,0 51.672,-31.758 51.844,-43.258 h -17.684 c -0.679,11.5 -10.124,29.527 -34.16,29.527 -28.324,0 -42.394,-23.004 -42.394,-50.473 0,-29.179 15.449,-50.468 42.394,-50.468 25.926,0 33.993,22.488 34.68,35.371 h 17.512" /><path
             id="path40"
             style="fill:#231f20;fill-opacity:1;fill-rule:nonzero;stroke:none"
             d="m 358.785,215.703 v 122.57 h 77.762 v -14.765 h -60.594 v -37.254 h 56.133 v -14.758 h -56.133 v -41.027 h 61.961 v -14.766 h -79.129" /><path
             id="path42"
             style="fill:#231f20;fill-opacity:1;fill-rule:nonzero;stroke:none"
             d="m 481.148,338.273 60.254,-100.937 h 0.508 v 100.937 h 15.281 v -122.57 h -21.289 l -62.656,103.684 h -0.34 V 215.703 h -15.285 v 122.57 h 23.527" /><path
             id="path44"
             style="fill:#231f20;fill-opacity:1;fill-rule:nonzero;stroke:none"
             d="M 671.988,338.273 V 323.508 H 630.445 V 215.703 h -17.168 v 107.805 h -41.543 v 14.765 h 100.254" /><path
             id="path46"
             style="fill:#918f90;fill-opacity:1;fill-rule:nonzero;stroke:none"
             d="m 140.953,171.25 h 514.246 v 9.60156 H 140.953 Z" /><path
             id="path48"
             style="fill:#918f90;fill-opacity:1;fill-rule:nonzero;stroke:none"
             d="m 90.0352,374.758 h 616.082 v 9.59766 H 90.0352 Z" /><path
             id="path50"
             style="fill:#231f20;fill-opacity:1;fill-rule:nonzero;stroke:none"
             d="m 296.621,510.938 c 0,-6.063 -4.629,-22.821 -24.262,-22.821 -17.16,0 -28.007,11.41 -28.007,29.848 0,17.398 11.093,29.844 28.007,29.844 19.555,0 24.024,-14.762 24.102,-20.11 h -8.219 c -0.32,5.348 -4.707,13.727 -15.883,13.727 -13.164,0 -19.707,-10.692 -19.707,-23.461 0,-13.57 7.176,-23.461 19.707,-23.461 12.051,0 15.801,10.453 16.121,16.434 h 8.141" /><path
             id="path52"
             style="fill:#231f20;fill-opacity:1;fill-rule:nonzero;stroke:none"
             d="m 313.336,489.473 h 7.97656 v 56.9766 H 313.336 Z" /><path
             id="path54"
             style="fill:#231f20;fill-opacity:1;fill-rule:nonzero;stroke:none"
             d="m 383.145,529.535 c -2.555,0 -6.946,0 -8.379,0 0,6.942 -4.629,11.891 -13.649,11.809 -7.82,0 -12.605,-3.512 -12.605,-7.903 0,-6.379 6.781,-8.535 14.843,-10.769 7.977,-2.238 22.344,-5.188 22.344,-17.953 0,-9.899 -8.301,-16.602 -24.101,-16.602 -13.086,0 -23.539,6.781 -23.539,20.266 0.636,0 7.578,0 8.457,0 0,-6.938 4.386,-13.879 16.359,-13.879 9.496,0 14.367,3.664 14.367,8.855 0,6.543 -7.183,9.336 -16.363,11.891 -9.098,2.477 -20.828,5.426 -20.828,17.953 0,7.746 7.742,14.527 21.144,14.527 14.289,0 21.95,-7.66 21.95,-18.195" /><path
             id="path56"
             style="fill:#231f20;fill-opacity:1;fill-rule:nonzero;stroke:none"
             d="m 450.688,510.938 c 0,-6.063 -4.629,-22.821 -24.258,-22.821 -17.157,0 -28.008,11.41 -28.008,29.848 0,17.398 11.094,29.844 28.008,29.844 19.55,0 24.023,-14.762 24.101,-20.11 h -8.222 c -0.313,5.348 -4.707,13.727 -15.879,13.727 -13.164,0 -19.707,-10.692 -19.707,-23.461 0,-13.57 7.179,-23.461 19.707,-23.461 12.05,0 15.8,10.453 16.125,16.434 h 8.133" /><path
             id="path58"
             style="fill:#231f20;fill-opacity:1;fill-rule:nonzero;stroke:none"
             d="m 492.223,494.504 c 13.25,0 19.715,10.848 19.715,23.461 0,12.769 -6.543,23.461 -19.715,23.461 -13.164,0 -19.707,-10.692 -19.707,-23.461 0,-13.57 7.175,-23.461 19.707,-23.461 z m -28.008,23.461 c 0,17.793 10.613,29.844 28.008,29.844 16.679,0 28.015,-11.25 28.015,-29.844 0,-18.754 -11.492,-29.848 -28.015,-29.848 -16.758,0 -28.008,11.41 -28.008,29.848" /><path
             id="path60"
             style="fill:#231f20;fill-opacity:1;fill-rule:nonzero;stroke:none"
             d="m 211.008,433.938 c 0,-6.067 -4.629,-22.825 -24.266,-22.825 -17.156,0 -28.008,11.41 -28.008,29.848 0,17.398 11.094,29.844 28.008,29.844 19.559,0 24.024,-14.758 24.102,-20.106 h -8.215 c -0.324,5.348 -4.707,13.727 -15.887,13.727 -13.164,0 -19.707,-10.696 -19.707,-23.465 0,-13.566 7.18,-23.461 19.707,-23.461 12.051,0 15.801,10.453 16.125,16.438 h 8.141" /><path
             id="path62"
             style="fill:#231f20;fill-opacity:1;fill-rule:nonzero;stroke:none"
             d="m 227.719,412.473 v 56.976 h 36.152 v -6.859 h -28.172 v -17.32 h 26.098 v -6.86 h -26.098 v -19.074 h 28.813 v -6.863 h -36.793" /><path
             id="path64"
             style="fill:#231f20;fill-opacity:1;fill-rule:nonzero;stroke:none"
             d="m 289.211,462.59 v -19.074 c 7.023,0 15.32,0 15.32,0 8.141,0 11.895,4.39 11.895,9.496 0,5.109 -3.672,9.578 -11.895,9.578 0,0 -10.133,0 -15.32,0 z m 15.402,-25.938 h -15.402 v -24.179 h -7.981 v 56.976 c 13.086,0 23.145,0 23.145,0 14.203,0 20.348,-7.183 20.348,-16.359 0,-11.809 -9.176,-14.363 -11.809,-14.922 0,0 0,-0.16 13.805,-25.695 h -9.418 l -12.688,24.179" /><path
             id="path66"
             style="fill:#231f20;fill-opacity:1;fill-rule:nonzero;stroke:none"
             d="m 382.859,469.449 v -6.859 h -19.308 v -50.117 h -7.981 v 50.117 h -19.316 v 6.859 h 46.605" /><path
             id="path68"
             style="fill:#231f20;fill-opacity:1;fill-rule:nonzero;stroke:none"
             d="m 397.191,412.473 h 7.98047 v 56.9766 H 397.191 Z" /><path
             id="path70"
             style="fill:#231f20;fill-opacity:1;fill-rule:nonzero;stroke:none"
             d="m 432.281,462.59 v -17.32 h 24.981 v -6.86 h -24.981 v -25.937 h -7.98 v 56.976 h 36.152 v -6.859 h -28.172" /><path
             id="path72"
             style="fill:#231f20;fill-opacity:1;fill-rule:nonzero;stroke:none"
             d="m 477.172,412.473 h 7.98047 v 56.9766 H 477.172 Z" /><path
             id="path74"
             style="fill:#231f20;fill-opacity:1;fill-rule:nonzero;stroke:none"
             d="m 504.281,412.473 v 56.976 h 36.153 v -6.859 h -28.172 v -17.32 h 26.093 v -6.86 h -26.093 v -19.074 h 28.808 v -6.863 h -36.789" /><path
             id="path76"
             style="fill:#231f20;fill-opacity:1;fill-rule:nonzero;stroke:none"
             d="m 565.777,462.59 v -43.254 h 12.051 c 13.25,0 19.715,9.016 19.715,21.625 0,12.769 -6.629,21.629 -20.039,21.629 z m 40.059,-21.629 c 0,-18.754 -11.484,-28.488 -28.008,-28.488 h -20.031 v 56.976 h 19.707 c 17.082,0 28.332,-9.976 28.332,-28.488" /><path
             id="path78"
             style="fill:#15495d;fill-opacity:1;fill-rule:nonzero;stroke:none"
             d="M 70.9727,188.293 C 36.4688,270.227 23.6758,359.973 32.8867,455.195 27.3086,450.48 -9.30078,415.949 2.23047,337.664 32.0352,135.48 153.773,32.4922 210.414,0 148.617,51.9844 101.773,115.203 70.9727,188.293" /><path
             id="path80"
             style="fill:#15495d;fill-opacity:1;fill-rule:nonzero;stroke:none"
             d="m 717.184,188.293 c 34.5,81.934 47.293,171.68 38.093,266.902 5.578,-4.715 42.18,-39.246 30.645,-117.531 C 756.129,135.48 634.379,32.4922 577.738,0 639.535,51.9844 686.391,115.203 717.184,188.293" /></g></g></g></g></svg>