<?xml version="1.0" encoding="UTF-8" standalone="no"?>
<svg
   xmlns:dc="http://purl.org/dc/elements/1.1/"
   xmlns:cc="http://creativecommons.org/ns#"
   xmlns:rdf="http://www.w3.org/1999/02/22-rdf-syntax-ns#"
   xmlns:svg="http://www.w3.org/2000/svg"
   xmlns="http://www.w3.org/2000/svg"
   xmlns:sodipodi="http://sodipodi.sourceforge.net/DTD/sodipodi-0.dtd"
   xmlns:inkscape="http://www.inkscape.org/namespaces/inkscape"
   viewBox="0 0 118.5073 61.137466"
   height="61.137466"
   width="118.5073"
   xml:space="preserve"
   id="svg2"
   version="1.1"
   inkscape:version="0.91 r13725"
   sodipodi:docname="comptia_a.svg"><sodipodi:namedview
     pagecolor="#ffffff"
     bordercolor="#666666"
     borderopacity="1"
     objecttolerance="10"
     gridtolerance="10"
     guidetolerance="10"
     inkscape:pageopacity="0"
     inkscape:pageshadow="2"
     inkscape:window-width="956"
     inkscape:window-height="1041"
     id="namedview33"
     showgrid="false"
     fit-margin-top="0"
     fit-margin-left="0"
     fit-margin-right="0"
     fit-margin-bottom="0"
     inkscape:zoom="2.2535544"
     inkscape:cx="58.34531"
     inkscape:cy="27.915069"
     inkscape:window-x="960"
     inkscape:window-y="18"
     inkscape:window-maximized="0"
     inkscape:current-layer="g12" /><metadata
     id="metadata8"><rdf:RDF><cc:Work
         rdf:about=""><dc:format>image/svg+xml</dc:format><dc:type
           rdf:resource="http://purl.org/dc/dcmitype/StillImage" /><dc:title /></cc:Work></rdf:RDF></metadata><defs
     id="defs6" /><g
     transform="matrix(1.3333333,0,0,-1.3333333,-11.988026,75.555731)"
     id="g10"><g
       transform="scale(0.1,0.1)"
       id="g12"><path
         id="path14"
         style="fill:#303843;fill-opacity:1;fill-rule:nonzero;stroke:none"
         d="m 89.9102,153.043 0,0.168 c 0,16.613 12.4418,30.227 30.1448,30.227 10.769,0 17.285,-3.762 22.879,-9.102 l -6.598,-7.602 c -4.676,4.344 -9.684,7.262 -16.367,7.262 -11.102,0 -19.285,-9.184 -19.285,-20.617 l 0,-0.168 c 0,-11.441 8.097,-20.707 19.285,-20.707 7.183,0 11.773,2.836 16.785,7.512 l 6.594,-6.68 c -6.094,-6.348 -12.774,-10.356 -23.711,-10.356 -17.035,0 -29.7268,13.278 -29.7268,30.063"
         inkscape:connector-curvature="0" /><path
         id="path16"
         style="fill:#303843;fill-opacity:1;fill-rule:nonzero;stroke:none"
         d="m 170.82,182.43 43.336,0 0,-9.184 -33.066,0 0,-15.191 29.305,0 0,-9.188 -29.305,0 0,-15.699 33.48,0 0,-9.184 -43.75,0 0,58.446"
         inkscape:connector-curvature="0" /><path
         id="path18"
         style="fill:#303843;fill-opacity:1;fill-rule:nonzero;stroke:none"
         d="m 268.758,153.461 c 7.351,0 12.027,3.836 12.027,9.769 l 0,0.165 c 0,6.265 -4.512,9.683 -12.105,9.683 l -14.95,0 0,-19.617 z m -25.297,28.969 26.051,0 c 7.347,0 13.109,-2.168 16.867,-5.84 3.09,-3.176 4.844,-7.516 4.844,-12.61 l 0,-0.168 c 0,-9.601 -5.762,-15.367 -13.86,-17.703 l 15.778,-22.125 -12.192,0 -14.359,20.371 -12.86,0 0,-20.371 -10.269,0 0,58.446"
         inkscape:connector-curvature="0" /><path
         id="path20"
         style="fill:#303843;fill-opacity:1;fill-rule:nonzero;stroke:none"
         d="m 334.641,172.914 -18.536,0 0,9.516 47.426,0 0,-9.516 -18.539,0 0,-48.93 -10.351,0 0,48.93"
         inkscape:connector-curvature="0" /><path
         id="path22"
         style="fill:#303843;fill-opacity:1;fill-rule:nonzero;stroke:none"
         d="m 391.668,123.984 10.2695,0 0,58.4453 -10.2695,0 z"
         inkscape:connector-curvature="0" /><path
         id="path24"
         style="fill:#303843;fill-opacity:1;fill-rule:nonzero;stroke:none"
         d="m 434.254,182.43 43.5,0 0,-9.352 -33.234,0 0,-15.945 29.476,0 0,-9.352 -29.476,0 0,-23.797 -10.266,0 0,58.446"
         inkscape:connector-curvature="0" /><path
         id="path26"
         style="fill:#303843;fill-opacity:1;fill-rule:nonzero;stroke:none"
         d="m 506.305,123.984 10.2734,0 0,58.4453 -10.2734,0 z"
         inkscape:connector-curvature="0" /><path
         id="path28"
         style="fill:#303843;fill-opacity:1;fill-rule:nonzero;stroke:none"
         d="m 548.891,182.43 43.336,0 0,-9.184 -33.063,0 0,-15.191 29.309,0 0,-9.188 -29.309,0 0,-15.699 33.481,0 0,-9.184 -43.754,0 0,58.446"
         inkscape:connector-curvature="0" /><path
         id="path30"
         style="fill:#303843;fill-opacity:1;fill-rule:nonzero;stroke:none"
         d="m 631.805,173.078 0,-39.742 11.519,0 c 12.278,0 20.289,8.266 20.289,19.707 l 0,0.168 c 0,11.437 -8.011,19.867 -20.289,19.867 z m -10.274,9.352 21.793,0 c 18.371,0 31.063,-12.606 31.063,-29.051 l 0,-0.168 c 0,-16.453 -12.692,-29.227 -31.063,-29.227 l -21.793,0 0,58.446"
         inkscape:connector-curvature="0" /><path
         id="path32"
         style="fill:#303843;fill-opacity:1;fill-rule:nonzero;stroke:none"
         d="m 836.688,160.07 0,0.274 c 0,20.23 15.792,37.41 36.714,37.41 13.578,0 22.028,-5.68 28.68,-12.746 l -7.066,-7.481 c -5.68,5.953 -12.055,10.805 -21.754,10.805 -14.547,0 -25.629,-12.332 -25.629,-27.711 l 0,-0.277 c 0,-15.516 11.359,-27.848 26.32,-27.848 9.149,0 16.215,4.574 21.895,10.668 l 6.789,-6.371 c -7.207,-8.035 -15.797,-13.855 -29.235,-13.855 -20.922,0 -36.714,17.039 -36.714,37.132"
         inkscape:connector-curvature="0" /><path
         id="path34"
         style="fill:#303843;fill-opacity:1;fill-rule:nonzero;stroke:none"
         d="m 967.906,164.641 c -1.246,13.023 -8.726,24.105 -22.859,24.105 -12.328,0 -21.75,-10.254 -23.277,-24.105 z m -20.922,-32.418 c 9.84,0 16.77,4.015 22.586,10.113 l 6.649,-5.957 c -7.199,-8.035 -15.934,-13.441 -29.508,-13.441 -19.676,0 -35.746,15.101 -35.746,37.406 0,20.785 14.547,37.41 34.359,37.41 21.196,0 33.391,-16.906 33.391,-37.961 0,-0.969 0,-2.082 -0.141,-3.742 l -56.804,0 c 1.527,-15.102 12.609,-23.828 25.214,-23.828"
         inkscape:connector-curvature="0" /><path
         id="path36"
         style="fill:none;stroke:#a1a7aa;stroke-width:3.75522995;stroke-linecap:butt;stroke-linejoin:miter;stroke-miterlimit:4;stroke-dasharray:none;stroke-opacity:1"
         d="m 764.48,566.668 0,-458.531"
         inkscape:connector-curvature="0" /><path
         id="path40"
         style="fill:#303843;fill-opacity:1;fill-rule:nonzero;stroke:none"
         d="m 604.887,479.527 -167.086,0 0,-200.945 c 0,-7.094 -5.758,-12.84 -12.84,-12.84 l -256.797,0 0,-10.687 436.723,0 c 7.086,0 12.828,5.742 12.828,12.832 l 0,198.812 c 0,7.082 -5.742,12.828 -12.828,12.828"
         inkscape:connector-curvature="0" /><path
         id="path42"
         style="fill:#e32124;fill-opacity:1;fill-rule:nonzero;stroke:none"
         d="m 168.293,255.055 0,211.64 c 0,7.086 5.742,12.836 12.836,12.836 l 256.594,0 0,62.446 c 0,7.085 -5.746,12.828 -12.825,12.828 l -263.375,0 c -7.082,0 -12.839,-5.743 -12.839,-12.828 l 0,-274.09 c 0,-7.082 5.757,-12.832 12.839,-12.832"
         inkscape:connector-curvature="0" /><path
         id="path44"
         style="fill:#ffffff;fill-opacity:1;fill-rule:nonzero;stroke:none"
         d="m 235.078,523.18 c -5.773,0 -10.324,-3.868 -10.324,-8.793 0,-4.922 4.551,-8.727 10.324,-8.727 5.785,0 10.348,3.805 10.348,8.727 0,4.925 -4.563,8.793 -10.348,8.793 z m 0,-23.434 c -9.098,0 -16.226,6.395 -16.226,14.641 0,8.238 7.128,14.699 16.226,14.699 9.102,0 16.238,-6.461 16.238,-14.699 0,-8.246 -7.136,-14.641 -16.238,-14.641"
         inkscape:connector-curvature="0" /><path
         id="path46"
         style="fill:#ffffff;fill-opacity:1;fill-rule:nonzero;stroke:none"
         d="m 293.152,499.746 c -3.281,0 -5.925,2.711 -5.925,6.027 l 0,12.18 c 0,2.891 -2.512,5.227 -5.653,5.227 -3.082,0 -5.594,-2.336 -5.594,-5.227 0,0 0,0 0,-18.207 -3.261,0 -5.902,2.645 -5.902,5.914 l 0,12.293 c 0,2.891 -2.516,5.227 -5.664,5.227 -3.07,0 -5.59,-2.336 -5.59,-5.227 l 0,-12.23 c 0,-3.266 -2.652,-5.977 -5.91,-5.977 l 0,18.207 c 0,6.145 5.156,11.133 11.5,11.133 3.449,0 6.524,-1.406 8.606,-3.684 2.097,2.278 5.164,3.684 8.554,3.684 6.391,0 11.578,-4.988 11.578,-11.133 l 0,-18.207"
         inkscape:connector-curvature="0" /><path
         id="path48"
         style="fill:#ffffff;fill-opacity:1;fill-rule:nonzero;stroke:none"
         d="m 312.328,499.805 c -1.531,0 -3.023,0.133 -4.375,0.441 -3.066,0.852 -4.844,4.055 -4.043,7.129 0.11,0.371 0.235,0.73 0.363,1.047 l 0.063,0.058 c 1.652,-1.843 4.352,-2.757 7.992,-2.757 5.406,0 9.66,3.812 9.66,8.601 0,4.988 -4.254,8.922 -9.66,8.922 -5.109,0 -10.211,-2.832 -10.211,-9.043 l 0,-19.125 c 0,-3.199 -2.699,-5.781 -5.906,-5.781 l 0,24.906 c 0,8.617 6.769,14.942 16.117,14.942 4.117,0 7.996,-1.54 10.938,-4.25 2.953,-2.754 4.609,-6.512 4.609,-10.571 0,-8.109 -6.813,-14.519 -15.547,-14.519"
         inkscape:connector-curvature="0" /><path
         id="path50"
         style="fill:#ffffff;fill-opacity:1;fill-rule:nonzero;stroke:none"
         d="m 354.457,534.688 -12.641,0 0,-34.942 -0.257,0 c -3.145,0 -5.653,2.711 -5.653,5.914 l 0,29.028 -12.664,0 c -3.187,0 -5.758,2.644 -5.758,5.839 l 42.797,0 c 0,-3.195 -2.582,-5.839 -5.824,-5.839"
         inkscape:connector-curvature="0" /><path
         id="path52"
         style="fill:#ffffff;fill-opacity:1;fill-rule:nonzero;stroke:none"
         d="m 391.906,534.426 -8.398,-18.442 15.828,0 -8.438,18.508 z M 405,503.461 l -3.137,6.742 -20.965,0 -3.105,-6.933 c -1.461,-2.79 -5.34,-3.61 -8.324,-3.61 l 17.082,37.481 c 0.984,2.152 2.707,3.386 4.699,3.386 1.977,0 3.75,-1.234 4.719,-3.386 l 16.91,-37.028 c -3.191,-0.297 -6.645,0.641 -7.879,3.348"
         inkscape:connector-curvature="0" /><path
         id="path54"
         style="fill:#ffffff;fill-opacity:1;fill-rule:nonzero;stroke:none"
         d="m 212.219,529.52 c -3.203,3.375 -7.879,5.601 -13.043,5.601 -9.156,0 -16.617,-6.652 -16.617,-14.828 0,-8.188 7.461,-14.891 16.617,-14.891 4.375,0 8.496,1.668 11.625,4.301 2.152,1.785 5.363,1.668 7.437,-0.113 -1.593,-2.461 -3.742,-4.606 -6.39,-6.278 -3.75,-2.394 -8.125,-3.628 -12.672,-3.628 -12.364,0 -22.387,9.238 -22.387,20.609 0,11.375 10.023,20.609 22.387,20.609 8.793,0 16.793,-4.8 20.351,-12.191 -2.254,-1.473 -5.402,-1.285 -7.308,0.809"
         inkscape:connector-curvature="0" /><path
         id="path56"
         style="fill:#ffffff;fill-opacity:1;fill-rule:nonzero;stroke:none"
         d="m 416.254,504.52 c -0.086,-0.047 -0.176,-0.075 -0.281,-0.114 0,0 0.172,-0.234 0.761,-0.929 l -0.097,-0.09 c -0.246,-0.211 -0.629,-0.176 -0.836,0.054 -0.645,0.786 -0.727,0.871 -0.727,0.871 0,0 -0.097,0 -0.726,0 l 0,0.208 c 0.023,0.281 0.273,0.527 0.57,0.527 l 0.371,0 c 0.246,0 0.453,0.039 0.582,0.129 0.113,0.051 0.137,0.117 0.137,0.238 0,0.098 0,0.34 -0.719,0.34 -0.879,0 -1.027,0 -1.027,0 0,0 0,-0.156 0,-1.926 0,-0.32 -0.262,-0.574 -0.594,-0.574 l -0.148,0 0,2.691 c 0.011,0.301 0.269,0.535 0.57,0.551 l 1.199,0 c 1.336,0 1.457,-0.758 1.457,-1.082 0,-0.379 -0.184,-0.695 -0.492,-0.894 z m -1.149,2.425 c -1.359,0 -2.453,-0.965 -2.453,-2.152 0,-1.191 1.094,-2.16 2.453,-2.16 1.356,0 2.473,0.969 2.473,2.16 0,1.187 -1.117,2.152 -2.473,2.152 z m 0,-4.941 c -1.695,0 -3.105,1.25 -3.105,2.789 0,1.535 1.41,2.793 3.105,2.793 1.704,0 3.102,-1.258 3.102,-2.793 0,-1.539 -1.398,-2.789 -3.102,-2.789"
         inkscape:connector-curvature="0" /><path
         id="path58"
         style="fill:#ffffff;fill-opacity:1;fill-rule:nonzero;stroke:none"
         d="m 362.16,540.508 0,-35.031 c 0,-3.149 2.707,-5.731 5.914,-5.731 l 0,35.039 c 0,3.145 -2.711,5.723 -5.914,5.723"
         inkscape:connector-curvature="0" /><path
         id="path60"
         style="fill:#e32124;fill-opacity:1;fill-rule:nonzero;stroke:none"
         d="m 341.16,351.234 -28.644,66.286 -28.418,-66.286 z m -41.672,101.082 26.996,0 72.914,-166.89 -30.785,0 -16.808,40.004 -78.36,0 -17.035,-40.004 -29.84,0 72.918,166.89"
         inkscape:connector-curvature="0" /><path
         id="path62"
         style="fill:#ffffff;fill-opacity:1;fill-rule:nonzero;stroke:none"
         d="m 511.434,349.609 -41.246,0 0,23.625 41.246,0 0,41.024 24.484,0 0,-41.024 41.23,0 0,-23.625 -41.23,0 0,-41.023 -24.484,0 0,41.023"
         inkscape:connector-curvature="0" /><path
         id="path64"
         style="fill:#303843;fill-opacity:1;fill-rule:nonzero;stroke:none"
         d="m 641.07,272.977 c 1.785,0 2.836,0.875 2.836,2.234 l 0,0.082 c 0,1.441 -1.051,2.242 -2.836,2.242 l -3.574,0 0,-4.558 z m -6.316,7.031 6.418,0 c 1.902,0 3.379,-0.57 4.379,-1.567 0.742,-0.711 1.172,-1.75 1.172,-2.996 l 0,-0.078 c 0,-2.324 -1.383,-3.758 -3.348,-4.332 l 3.891,-5.437 -3.289,0 -3.5,4.972 -2.981,0 0,-4.972 -2.742,0 z m 17.855,-7.598 0,0.074 c 0,6.797 -5.277,12.305 -12.281,12.305 -7.035,0 -12.355,-5.586 -12.355,-12.379 l 0,-0.086 c 0,-6.804 5.285,-12.308 12.285,-12.308 7.039,0 12.351,5.582 12.351,12.394 z m -26.078,-0.086 0,0.086 c 0,7.485 6.094,13.758 13.797,13.758 7.731,0 13.719,-6.203 13.719,-13.684 l 0,-0.074 c 0,-7.496 -6.074,-13.769 -13.789,-13.769 -7.719,0 -13.727,6.191 -13.727,13.683"
         inkscape:connector-curvature="0" /></g></g></svg>