<?xml version="1.0" encoding="UTF-8" standalone="no"?>
<svg
   xmlns:dc="http://purl.org/dc/elements/1.1/"
   xmlns:cc="http://creativecommons.org/ns#"
   xmlns:rdf="http://www.w3.org/1999/02/22-rdf-syntax-ns#"
   xmlns:svg="http://www.w3.org/2000/svg"
   xmlns="http://www.w3.org/2000/svg"
   xmlns:sodipodi="http://sodipodi.sourceforge.net/DTD/sodipodi-0.dtd"
   xmlns:inkscape="http://www.inkscape.org/namespaces/inkscape"
   viewBox="0 0 106.88333 33.1516"
   height="33.1516"
   width="106.88333"
   xml:space="preserve"
   id="svg2"
   version="1.1"
   inkscape:version="0.91 r13725"
   sodipodi:docname="comptia_security.svg"><sodipodi:namedview
     pagecolor="#ffffff"
     bordercolor="#666666"
     borderopacity="1"
     objecttolerance="10"
     gridtolerance="10"
     guidetolerance="10"
     inkscape:pageopacity="0"
     inkscape:pageshadow="2"
     inkscape:window-width="956"
     inkscape:window-height="1041"
     id="namedview41"
     showgrid="false"
     fit-margin-top="0"
     fit-margin-left="0"
     fit-margin-right="0"
     fit-margin-bottom="0"
     inkscape:zoom="2.2535544"
     inkscape:cx="51.95787"
     inkscape:cy="17.855736"
     inkscape:window-x="960"
     inkscape:window-y="18"
     inkscape:window-maximized="0"
     inkscape:current-layer="g12" /><metadata
     id="metadata8"><rdf:RDF><cc:Work
         rdf:about=""><dc:format>image/svg+xml</dc:format><dc:type
           rdf:resource="http://purl.org/dc/dcmitype/StillImage" /><dc:title /></cc:Work></rdf:RDF></metadata><defs
     id="defs6" /><g
     transform="matrix(1.3333333,0,0,-1.3333333,-18.375466,57.629199)"
     id="g10"><g
       transform="scale(0.1,0.1)"
       id="g12"><path
         id="path14"
         style="fill:#303843;fill-opacity:1;fill-rule:nonzero;stroke:none"
         d="m 285.406,207.621 0,0.09 c 0,8.894 6.66,16.18 16.137,16.18 5.766,0 9.254,-2.012 12.25,-4.871 l -3.535,-4.071 c -2.5,2.324 -5.184,3.891 -8.762,3.891 -5.941,0 -10.324,-4.918 -10.324,-11.039 l 0,-0.09 c 0,-6.125 4.336,-11.086 10.324,-11.086 3.848,0 6.305,1.52 8.988,4.023 l 3.532,-3.578 c -3.266,-3.394 -6.84,-5.543 -12.696,-5.543 -9.117,0 -15.914,7.11 -15.914,16.094"
         inkscape:connector-curvature="0" /><path
         id="path16"
         style="fill:#303843;fill-opacity:1;fill-rule:nonzero;stroke:none"
         d="m 328.719,223.352 23.199,0 0,-4.914 -17.703,0 0,-8.133 15.691,0 0,-4.918 -15.691,0 0,-8.407 17.926,0 0,-4.914 -23.422,0 0,31.286"
         inkscape:connector-curvature="0" /><path
         id="path18"
         style="fill:#303843;fill-opacity:1;fill-rule:nonzero;stroke:none"
         d="m 381.148,207.844 c 3.934,0 6.438,2.054 6.438,5.23 l 0,0.086 c 0,3.356 -2.414,5.188 -6.481,5.188 l -8.003,0 0,-10.504 z m -13.543,15.508 13.946,0 c 3.933,0 7.015,-1.161 9.027,-3.125 1.656,-1.7 2.594,-4.024 2.594,-6.75 l 0,-0.09 c 0,-5.141 -3.082,-8.227 -7.418,-9.477 l 8.445,-11.844 -6.523,0 -7.692,10.903 -6.882,0 0,-10.903 -5.497,0 0,31.286"
         inkscape:connector-curvature="0" /><path
         id="path20"
         style="fill:#303843;fill-opacity:1;fill-rule:nonzero;stroke:none"
         d="m 416.414,218.258 -9.922,0 0,5.094 25.387,0 0,-5.094 -9.922,0 0,-26.192 -5.543,0 0,26.192"
         inkscape:connector-curvature="0" /><path
         id="path22"
         style="fill:#303843;fill-opacity:1;fill-rule:nonzero;stroke:none"
         d="m 446.941,192.066 5.5,0 0,31.2852 -5.5,0 z"
         inkscape:connector-curvature="0" /><path
         id="path24"
         style="fill:#303843;fill-opacity:1;fill-rule:nonzero;stroke:none"
         d="m 469.738,223.352 23.285,0 0,-5.004 -17.789,0 0,-8.536 15.782,0 0,-5.007 -15.782,0 0,-12.739 -5.496,0 0,31.286"
         inkscape:connector-curvature="0" /><path
         id="path26"
         style="fill:#303843;fill-opacity:1;fill-rule:nonzero;stroke:none"
         d="m 508.309,192.066 5.5,0 0,31.2852 -5.5,0 z"
         inkscape:connector-curvature="0" /><path
         id="path28"
         style="fill:#303843;fill-opacity:1;fill-rule:nonzero;stroke:none"
         d="m 531.105,223.352 23.2,0 0,-4.914 -17.7,0 0,-8.133 15.688,0 0,-4.918 -15.688,0 0,-8.407 17.922,0 0,-4.914 -23.422,0 0,31.286"
         inkscape:connector-curvature="0" /><path
         id="path30"
         style="fill:#303843;fill-opacity:1;fill-rule:nonzero;stroke:none"
         d="m 575.492,218.348 0,-21.278 6.164,0 c 6.574,0 10.864,4.426 10.864,10.551 l 0,0.09 c 0,6.121 -4.29,10.637 -10.864,10.637 z m -5.5,5.004 11.664,0 c 9.836,0 16.629,-6.747 16.629,-15.551 l 0,-0.09 c 0,-8.809 -6.793,-15.645 -16.629,-15.645 l -11.664,0 0,31.286"
         inkscape:connector-curvature="0" /><path
         id="path32"
         style="fill:#303843;fill-opacity:1;fill-rule:nonzero;stroke:none"
         d="m 863.41,211.383 0,0.148 c 0,10.828 8.457,20.024 19.656,20.024 7.27,0 11.789,-3.039 15.352,-6.825 l -3.781,-4.003 c -3.043,3.187 -6.453,5.785 -11.645,5.785 -7.789,0 -13.722,-6.602 -13.722,-14.836 l 0,-0.145 c 0,-8.308 6.082,-14.91 14.093,-14.91 4.895,0 8.676,2.449 11.719,5.711 l 3.633,-3.41 c -3.86,-4.301 -8.453,-7.418 -15.649,-7.418 -11.199,0 -19.656,9.125 -19.656,19.879"
         inkscape:connector-curvature="0" /><path
         id="path34"
         style="fill:#303843;fill-opacity:1;fill-rule:nonzero;stroke:none"
         d="m 933.656,213.828 c -0.668,6.973 -4.672,12.906 -12.238,12.906 -6.602,0 -11.645,-5.488 -12.457,-12.906 z m -11.199,-17.351 c 5.266,0 8.973,2.148 12.09,5.414 l 3.558,-3.192 c -3.855,-4.301 -8.531,-7.195 -15.796,-7.195 -10.532,0 -19.133,8.086 -19.133,20.027 0,11.121 7.785,20.024 18.39,20.024 11.348,0 17.875,-9.051 17.875,-20.321 0,-0.519 0,-1.113 -0.074,-2.004 l -30.406,0 c 0.812,-8.082 6.746,-12.753 13.496,-12.753"
         inkscape:connector-curvature="0" /><path
         id="path36"
         style="fill:none;stroke:#a1a7aa;stroke-width:2.01023006;stroke-linecap:butt;stroke-linejoin:miter;stroke-miterlimit:4;stroke-dasharray:none;stroke-opacity:1"
         d="m 824.758,432.219 0,-248.637"
         inkscape:connector-curvature="0" /><path
         id="path40"
         style="fill:#e32124;fill-opacity:1;fill-rule:nonzero;stroke:none"
         d="m 147.988,262.375 0,114.754 c 0,3.676 2.981,6.656 6.66,6.656 l 133.114,0 0,32.399 c 0,3.675 -2.981,6.656 -6.653,6.656 l -136.632,0 c -3.676,0 -6.661,-2.981 -6.661,-6.656 l 0,-147.153 c 0,-3.676 2.985,-6.656 6.661,-6.656"
         inkscape:connector-curvature="0" /><path
         id="path42"
         style="fill:#ffffff;fill-opacity:1;fill-rule:nonzero;stroke:none"
         d="m 182.637,406.434 c -2.996,0 -5.36,-2.008 -5.36,-4.563 0,-2.555 2.364,-4.527 5.36,-4.527 3,0 5.367,1.972 5.367,4.527 0,2.555 -2.367,4.563 -5.367,4.563 z m 0,-12.161 c -4.723,0 -8.422,3.321 -8.422,7.598 0,4.274 3.699,7.625 8.422,7.625 4.718,0 8.422,-3.351 8.422,-7.625 0,-4.277 -3.704,-7.598 -8.422,-7.598"
         inkscape:connector-curvature="0" /><path
         id="path44"
         style="fill:#ffffff;fill-opacity:1;fill-rule:nonzero;stroke:none"
         d="m 212.762,394.273 c -1.703,0 -3.074,1.407 -3.074,3.129 l 0,6.321 c 0,1.5 -1.301,2.711 -2.934,2.711 -1.598,0 -2.899,-1.211 -2.899,-2.711 0,0 0,0 0,-9.45 -1.695,0 -3.062,1.375 -3.062,3.071 l 0,6.379 c 0,1.5 -1.309,2.711 -2.941,2.711 -1.59,0 -2.899,-1.211 -2.899,-2.711 l 0,-6.348 c 0,-1.695 -1.375,-3.102 -3.066,-3.102 l 0,9.45 c 0,3.183 2.675,5.773 5.965,5.773 1.793,0 3.386,-0.73 4.464,-1.91 1.09,1.18 2.68,1.91 4.438,1.91 3.316,0 6.008,-2.59 6.008,-5.773 l 0,-9.45"
         inkscape:connector-curvature="0" /><path
         id="path46"
         style="fill:#ffffff;fill-opacity:1;fill-rule:nonzero;stroke:none"
         d="m 222.711,394.305 c -0.793,0 -1.57,0.07 -2.27,0.23 -1.593,0.442 -2.511,2.102 -2.097,3.695 0.054,0.196 0.121,0.379 0.187,0.547 l 0.031,0.028 c 0.86,-0.953 2.258,-1.43 4.149,-1.43 2.801,0 5.012,1.977 5.012,4.465 0,2.586 -2.211,4.625 -5.012,4.625 -2.652,0 -5.301,-1.469 -5.301,-4.688 l 0,-9.925 c 0,-1.661 -1.398,-3 -3.062,-3 l 0,12.925 c 0,4.469 3.511,7.75 8.363,7.75 2.137,0 4.144,-0.797 5.672,-2.207 1.531,-1.425 2.39,-3.379 2.39,-5.48 0,-4.211 -3.531,-7.535 -8.062,-7.535"
         inkscape:connector-curvature="0" /><path
         id="path48"
         style="fill:#ffffff;fill-opacity:1;fill-rule:nonzero;stroke:none"
         d="m 244.566,412.402 -6.558,0 0,-18.129 -0.137,0 c -1.629,0 -2.93,1.407 -2.93,3.071 l 0,15.058 -6.57,0 c -1.652,0 -2.984,1.371 -2.984,3.032 l 22.199,0 c 0,-1.661 -1.34,-3.032 -3.02,-3.032"
         inkscape:connector-curvature="0" /><path
         id="path50"
         style="fill:#ffffff;fill-opacity:1;fill-rule:nonzero;stroke:none"
         d="m 263.992,412.266 -4.355,-9.567 8.211,0 -4.375,9.602 z m 6.793,-16.063 -1.629,3.496 -10.875,0 -1.609,-3.597 c -0.758,-1.446 -2.77,-1.872 -4.32,-1.872 l 8.863,19.446 c 0.512,1.117 1.402,1.758 2.437,1.758 1.028,0 1.946,-0.641 2.45,-1.758 l 8.769,-19.211 c -1.652,-0.153 -3.445,0.332 -4.086,1.738"
         inkscape:connector-curvature="0" /><path
         id="path52"
         style="fill:#ffffff;fill-opacity:1;fill-rule:nonzero;stroke:none"
         d="m 170.773,409.723 c -1.66,1.75 -4.085,2.906 -6.765,2.906 -4.746,0 -8.621,-3.453 -8.621,-7.695 0,-4.246 3.875,-7.723 8.621,-7.723 2.269,0 4.406,0.863 6.031,2.23 1.117,0.926 2.781,0.868 3.859,-0.058 -0.828,-1.278 -1.941,-2.391 -3.316,-3.258 -1.945,-1.242 -4.215,-1.883 -6.574,-1.883 -6.414,0 -11.613,4.793 -11.613,10.692 0,5.902 5.199,10.695 11.613,10.695 4.562,0 8.711,-2.492 10.558,-6.324 -1.168,-0.766 -2.8,-0.668 -3.793,0.418"
         inkscape:connector-curvature="0" /><path
         id="path54"
         style="fill:#ffffff;fill-opacity:1;fill-rule:nonzero;stroke:none"
         d="m 276.621,396.75 c -0.043,-0.023 -0.086,-0.039 -0.144,-0.059 0,0 0.089,-0.121 0.398,-0.48 l -0.055,-0.047 c -0.125,-0.109 -0.324,-0.094 -0.433,0.027 -0.332,0.407 -0.375,0.454 -0.375,0.454 0,0 -0.051,0 -0.375,0 l 0,0.105 c 0.011,0.145 0.14,0.273 0.293,0.273 l 0.195,0 c 0.125,0 0.234,0.024 0.301,0.071 0.058,0.023 0.07,0.058 0.07,0.121 0,0.051 0,0.176 -0.371,0.176 -0.457,0 -0.535,0 -0.535,0 0,0 0,-0.082 0,-0.996 0,-0.168 -0.137,-0.301 -0.309,-0.301 l -0.078,0 0,1.398 c 0.008,0.156 0.145,0.274 0.301,0.285 l 0.621,0 c 0.691,0 0.754,-0.394 0.754,-0.562 0,-0.195 -0.094,-0.363 -0.258,-0.465 z m -0.594,1.262 c -0.707,0 -1.269,-0.504 -1.269,-1.117 0,-0.622 0.562,-1.122 1.269,-1.122 0.703,0 1.285,0.5 1.285,1.122 0,0.613 -0.582,1.117 -1.285,1.117 z m 0,-2.567 c -0.879,0 -1.609,0.649 -1.609,1.45 0,0.796 0.73,1.445 1.609,1.445 0.883,0 1.61,-0.649 1.61,-1.445 0,-0.801 -0.727,-1.45 -1.61,-1.45"
         inkscape:connector-curvature="0" /><path
         id="path56"
         style="fill:#ffffff;fill-opacity:1;fill-rule:nonzero;stroke:none"
         d="m 248.562,415.422 0,-18.176 c 0,-1.633 1.407,-2.973 3.067,-2.973 l 0,18.18 c 0,1.633 -1.406,2.969 -3.067,2.969"
         inkscape:connector-curvature="0" /><path
         id="path58"
         style="fill:#303843;fill-opacity:1;fill-rule:nonzero;stroke:none"
         d="m 759.961,275.168 2.094,0 2.293,-3.684 2.297,3.684 2.039,0 0,-8.734 -1.868,0 0,5.89 -2.41,-3.816 -0.172,0 -2.406,3.816 0,-5.89 -1.867,0 z m -6.434,-1.766 -2.605,0 0,1.766 7.199,0 0,-1.766 -2.605,0 0,-6.968 -1.989,0 0,6.968"
         inkscape:connector-curvature="0" /><path
         id="path60"
         style="fill:#303843;fill-opacity:1;fill-rule:nonzero;stroke:none"
         d="m 739.496,383.82 -86.687,0 0,-109.207 c 0,-3.679 -2.985,-6.664 -6.661,-6.664 l -35.964,0 c -2.055,-2.394 -4.325,-4.222 -6.856,-5.543 l 136.168,0 c 3.676,0 6.652,2.981 6.652,6.656 l 0,108.102 c 0,3.672 -2.976,6.656 -6.652,6.656"
         inkscape:connector-curvature="0" /><path
         id="path62"
         style="fill:#303843;fill-opacity:1;fill-rule:nonzero;stroke:none"
         d="m 568.777,266.723 0.559,1.226 -421.336,0 0,-5.543 429.266,0 c -1.379,0.567 -2.754,1.211 -4.153,1.969 l -4.336,2.348"
         inkscape:connector-curvature="0" /><path
         id="path64"
         style="fill:#ffffff;fill-opacity:1;fill-rule:nonzero;stroke:none"
         d="m 689.73,315 -21.398,0 0,12.258 21.398,0 0,21.281 12.704,0 0,-21.281 21.39,0 0,-12.258 -21.39,0 0,-21.281 -12.704,0 0,21.281"
         inkscape:connector-curvature="0" /><path
         id="path66"
         style="fill:#e32124;fill-opacity:1;fill-rule:nonzero;stroke:none"
         d="m 162.773,298.219 9.297,11.058 c 8.422,-7.289 16.84,-11.437 27.778,-11.437 9.55,0 15.582,4.398 15.582,11.062 l 0,0.246 c 0,6.29 -3.516,9.68 -19.856,13.454 -18.726,4.523 -29.285,10.05 -29.285,26.265 l 0,0.25 c 0,15.078 12.574,25.512 30.039,25.512 12.82,0 22.996,-3.895 31.926,-11.059 l -8.301,-11.691 c -7.918,5.91 -15.836,9.051 -23.875,9.051 -9.051,0 -14.328,-4.653 -14.328,-10.434 l 0,-0.246 c 0,-6.789 4.02,-9.805 20.863,-13.824 18.602,-4.524 28.274,-11.192 28.274,-25.766 l 0,-0.254 c 0,-16.461 -12.946,-26.265 -31.414,-26.265 -13.45,0 -26.145,4.652 -36.7,14.078"
         inkscape:connector-curvature="0" /><path
         id="path68"
         style="fill:#e32124;fill-opacity:1;fill-rule:nonzero;stroke:none"
         d="m 287.812,323.227 c -1.007,9.804 -6.785,17.468 -16.843,17.468 -9.301,0 -15.832,-7.164 -17.215,-17.468 z m -49.136,-4.903 0,0.25 c 0,18.981 13.441,34.563 32.422,34.563 21.113,0 31.793,-16.59 31.793,-35.692 0,-1.383 -0.121,-2.761 -0.254,-4.269 l -48.758,0 c 1.633,-10.813 9.301,-16.848 19.101,-16.848 7.415,0 12.692,2.77 17.973,7.926 l 8.922,-7.926 c -6.285,-7.535 -14.953,-12.437 -27.148,-12.437 -19.227,0 -34.051,13.949 -34.051,34.433"
         inkscape:connector-curvature="0" /><path
         id="path70"
         style="fill:#e32124;fill-opacity:1;fill-rule:nonzero;stroke:none"
         d="m 309.547,318.199 0,0.25 c 0,18.856 14.574,34.688 34.433,34.688 12.567,0 20.36,-4.649 26.52,-11.434 l -9.43,-10.18 c -4.648,4.903 -9.547,8.293 -17.215,8.293 -11.062,0 -19.101,-9.55 -19.101,-21.113 l 0,-0.254 c 0,-11.808 8.172,-21.363 19.855,-21.363 7.164,0 12.442,3.394 17.215,8.297 l 9.18,-9.055 c -6.539,-7.285 -14.207,-12.437 -27.149,-12.437 -19.734,0 -34.308,15.457 -34.308,34.308"
         inkscape:connector-curvature="0" /><path
         id="path72"
         style="fill:#e32124;fill-opacity:1;fill-rule:nonzero;stroke:none"
         d="m 379.164,309.527 0,42.227 15.207,0 0,-37.703 c 0,-10.305 5.152,-16.211 14.199,-16.211 8.797,0 14.957,6.16 14.957,16.465 l 0,37.449 15.207,0 0,-66.356 -15.207,0 0,10.305 c -4.273,-6.285 -10.433,-11.687 -20.734,-11.687 -14.953,0 -23.629,10.05 -23.629,25.511"
         inkscape:connector-curvature="0" /><path
         id="path74"
         style="fill:#e32124;fill-opacity:1;fill-rule:nonzero;stroke:none"
         d="m 452.805,351.754 15.207,0 0,-14.953 c 4.148,9.929 11.816,16.715 23.5,16.211 l 0,-16.086 -0.879,0 c -13.321,0 -22.621,-8.668 -22.621,-26.266 l 0,-25.262 -15.207,0 0,66.356"
         inkscape:connector-curvature="0" /><path
         id="path76"
         style="fill:#e32124;fill-opacity:1;fill-rule:nonzero;stroke:none"
         d="m 500.559,351.754 15.199,0 0,-66.356 -15.199,0 z m -0.633,24.637 16.336,0 0,-14.457 -16.336,0 0,14.457"
         inkscape:connector-curvature="0" /><path
         id="path78"
         style="fill:#e32124;fill-opacity:1;fill-rule:nonzero;stroke:none"
         d="m 533.73,303.746 0,34.942 -8.418,0 0,13.066 8.418,0 0,18.223 15.211,0 0,-18.223 17.844,0 0,-13.066 -17.844,0 0,-32.551 c 0,-5.91 3.008,-8.297 8.168,-8.297 3.395,0 6.403,0.758 9.422,2.262 l 0,-12.442 c -3.765,-2.137 -8.039,-3.394 -13.691,-3.394 -11.192,0 -19.11,4.906 -19.11,19.48"
         inkscape:connector-curvature="0" /><path
         id="path80"
         style="fill:#e32124;fill-opacity:1;fill-rule:nonzero;stroke:none"
         d="m 575.324,268.934 5.153,11.308 c 2.765,-1.504 5.785,-2.508 8.925,-2.508 4.27,0 6.918,1.883 9.422,7.664 l -27.648,66.356 16.215,0 18.855,-49.266 17.219,49.266 15.832,0 -26.399,-68.238 c -5.269,-13.578 -11.175,-18.602 -21.859,-18.602 -6.414,0 -11.059,1.512 -15.715,4.02"
         inkscape:connector-curvature="0" /></g></g></svg>