<?xml version="1.0" encoding="UTF-8" standalone="no"?>
<svg
   xmlns:dc="http://purl.org/dc/elements/1.1/"
   xmlns:cc="http://creativecommons.org/ns#"
   xmlns:rdf="http://www.w3.org/1999/02/22-rdf-syntax-ns#"
   xmlns:svg="http://www.w3.org/2000/svg"
   xmlns="http://www.w3.org/2000/svg"
   xmlns:sodipodi="http://sodipodi.sourceforge.net/DTD/sodipodi-0.dtd"
   xmlns:inkscape="http://www.inkscape.org/namespaces/inkscape"
   viewBox="0 0 370.13064 173.04533"
   height="173.04533"
   width="370.13065"
   xml:space="preserve"
   id="svg2"
   version="1.1"
   inkscape:version="0.91 r13725"
   sodipodi:docname="comptia_linux.svg"><sodipodi:namedview
     pagecolor="#ffffff"
     bordercolor="#666666"
     borderopacity="1"
     objecttolerance="10"
     gridtolerance="10"
     guidetolerance="10"
     inkscape:pageopacity="0"
     inkscape:pageshadow="2"
     inkscape:window-width="956"
     inkscape:window-height="1041"
     id="namedview78"
     showgrid="false"
     fit-margin-top="0"
     fit-margin-left="0"
     fit-margin-right="0"
     fit-margin-bottom="0"
     inkscape:zoom="0.85645435"
     inkscape:cx="185.06533"
     inkscape:cy="43.519682"
     inkscape:window-x="960"
     inkscape:window-y="18"
     inkscape:window-maximized="0"
     inkscape:current-layer="g16" /><metadata
     id="metadata8"><rdf:RDF><cc:Work
         rdf:about=""><dc:format>image/svg+xml</dc:format><dc:type
           rdf:resource="http://purl.org/dc/dcmitype/StillImage" /><dc:title /></cc:Work></rdf:RDF></metadata><defs
     id="defs6"><clipPath
       id="clipPath20"
       clipPathUnits="userSpaceOnUse"><path
         id="path18"
         d="M 0,1942.84 0,0 l 2775.98,0 0,1942.84 z"
         inkscape:connector-curvature="0" /></clipPath></defs><g
     transform="matrix(1.3333333,0,0,-1.3333333,0,259.04533)"
     id="g10"><g
       transform="scale(0.1,0.1)"
       id="g12"><g
         id="g14"><g
           clip-path="url(#clipPath20)"
           id="g16"><path
             id="path22"
             style="fill:#303843;fill-opacity:1;fill-rule:nonzero;stroke:none"
             d="m 2722.27,1063.9 12.9,0 14.11,-22.68 14.15,22.68 12.55,0 0,-53.78 -11.49,0 0,36.29 -14.84,-23.52 -1.05,0 -14.84,23.52 0,-36.29 -11.49,0 z m -39.63,-10.86 -16.06,0 0,10.86 44.35,0 0,-10.86 -16.05,0 0,-42.92 -12.24,0 0,42.92"
             inkscape:connector-curvature="0" /><path
             id="path26"
             style="fill:#303843;fill-opacity:1;fill-rule:nonzero;stroke:none"
             d="m 2595.53,1702.33 -533.85,0 0,-642.04 c 0,-22.67 -18.39,-41.02 -41.03,-41.02 l -1958.4586,0 0,-34.149 2533.3386,0 c 22.65,0 40.99,18.339 40.99,40.989 l 0,635.23 c 0,22.63 -18.34,40.99 -40.99,40.99"
             inkscape:connector-curvature="0" /><path
             id="path28"
             style="fill:#e32124;fill-opacity:1;fill-rule:nonzero;stroke:none"
             d="m 62.6523,985.121 0,676.199 c 0,22.64 18.3516,41.02 41.0117,41.02 l 819.844,0 0,199.52 c 0,22.63 -18.363,40.98 -40.977,40.98 l -841.5076,0 C 18.3906,1942.84 0,1924.49 0,1901.86 l 0,-875.75 c 0,-22.62 18.3906,-40.989 41.0234,-40.989"
             inkscape:connector-curvature="0" /><path
             id="path30"
             style="fill:#ffffff;fill-opacity:1;fill-rule:nonzero;stroke:none"
             d="m 276.043,1841.8 c -18.453,0 -32.996,-12.36 -32.996,-28.09 0,-15.73 14.543,-27.89 32.996,-27.89 18.48,0 33.062,12.16 33.062,27.89 0,15.73 -14.582,28.09 -33.062,28.09 z m 0,-74.87 c -29.074,0 -51.855,20.43 -51.855,46.78 0,26.32 22.781,46.96 51.855,46.96 29.074,0 51.875,-20.64 51.875,-46.96 0,-26.35 -22.801,-46.78 -51.875,-46.78"
             inkscape:connector-curvature="0" /><path
             id="path32"
             style="fill:#ffffff;fill-opacity:1;fill-rule:nonzero;stroke:none"
             d="m 461.586,1766.93 c -10.477,0 -18.926,8.66 -18.926,19.25 l 0,38.93 c 0,9.23 -8.027,16.69 -18.066,16.69 -9.848,0 -17.867,-7.46 -17.867,-16.69 0,0 0,0 0,-58.18 -10.422,0 -18.86,8.45 -18.86,18.89 l 0,39.29 c 0,9.23 -8.043,16.69 -18.097,16.69 -9.817,0 -17.864,-7.46 -17.864,-16.69 l 0,-39.09 c 0,-10.43 -8.472,-19.09 -18.883,-19.09 l 0,58.18 c 0,19.62 16.473,35.56 36.747,35.56 11.019,0 20.843,-4.49 27.492,-11.77 6.711,7.28 16.504,11.77 27.332,11.77 20.422,0 36.992,-15.94 36.992,-35.56 l 0,-58.18"
             inkscape:connector-curvature="0" /><path
             id="path34"
             style="fill:#ffffff;fill-opacity:1;fill-rule:nonzero;stroke:none"
             d="m 522.863,1767.12 c -4.894,0 -9.668,0.42 -13.98,1.41 -9.809,2.72 -15.477,12.95 -12.926,22.77 0.348,1.18 0.754,2.33 1.172,3.35 l 0.187,0.19 c 5.282,-5.89 13.911,-8.82 25.547,-8.82 17.262,0 30.864,12.18 30.864,27.49 0,15.93 -13.602,28.5 -30.864,28.5 -16.332,0 -32.636,-9.05 -32.636,-28.89 l 0,-61.11 c 0,-10.22 -8.622,-18.47 -18.868,-18.47 l 0,79.58 c 0,27.53 21.629,47.74 51.504,47.74 13.153,0 25.539,-4.91 34.938,-13.58 9.437,-8.8 14.726,-20.81 14.726,-33.77 0,-25.92 -21.757,-46.39 -49.664,-46.39"
             inkscape:connector-curvature="0" /><path
             id="path36"
             style="fill:#ffffff;fill-opacity:1;fill-rule:nonzero;stroke:none"
             d="m 657.465,1878.57 -40.395,0 0,-111.64 -0.824,0 c -10.043,0 -18.055,8.66 -18.055,18.89 l 0,92.75 -40.457,0 c -10.199,0 -18.398,8.45 -18.398,18.66 l 136.738,0 c 0,-10.21 -8.254,-18.66 -18.609,-18.66"
             inkscape:connector-curvature="0" /><path
             id="path38"
             style="fill:#ffffff;fill-opacity:1;fill-rule:nonzero;stroke:none"
             d="m 777.117,1877.74 -26.836,-58.94 50.574,0 -26.953,59.15 z m 41.836,-98.94 -10.027,21.54 -66.981,0 -9.922,-22.16 c -4.668,-8.91 -17.066,-11.53 -26.593,-11.53 l 54.578,119.76 c 3.14,6.88 8.64,10.82 15.008,10.82 6.32,0 11.98,-3.94 15.086,-10.82 l 54.023,-118.31 c -10.195,-0.94 -21.23,2.04 -25.172,10.7"
             inkscape:connector-curvature="0" /><path
             id="path40"
             style="fill:#ffffff;fill-opacity:1;fill-rule:nonzero;stroke:none"
             d="m 202.992,1862.05 c -10.23,10.79 -25.164,17.9 -41.672,17.9 -29.246,0 -53.086,-21.25 -53.086,-47.38 0,-26.16 23.84,-47.57 53.086,-47.57 13.981,0 27.149,5.33 37.149,13.75 6.883,5.7 17.136,5.33 23.761,-0.37 -5.085,-7.86 -11.957,-14.72 -20.418,-20.05 -11.988,-7.66 -25.953,-11.6 -40.492,-11.6 -39.5,0 -71.527,29.52 -71.527,65.84 0,36.35 32.027,65.86 71.527,65.86 28.094,0 53.657,-15.35 65.035,-38.95 -7.214,-4.71 -17.265,-4.11 -23.363,2.57"
             inkscape:connector-curvature="0" /><path
             id="path42"
             style="fill:#ffffff;fill-opacity:1;fill-rule:nonzero;stroke:none"
             d="m 854.906,1782.18 c -0.277,-0.15 -0.551,-0.24 -0.898,-0.37 0,0 0.554,-0.74 2.441,-2.96 l -0.32,-0.29 c -0.785,-0.67 -2.008,-0.57 -2.672,0.17 -2.059,2.51 -2.309,2.78 -2.309,2.78 0,0 -0.312,0 -2.328,0 l 0,0.67 c 0.078,0.89 0.871,1.68 1.817,1.68 l 1.195,0 c 0.781,0 1.445,0.13 1.859,0.42 0.356,0.16 0.43,0.37 0.43,0.76 0,0.3 0,1.08 -2.289,1.08 -2.816,0 -3.281,0 -3.281,0 0,0 0,-0.5 0,-6.14 0,-1.03 -0.844,-1.85 -1.903,-1.85 l -0.48,0 0,8.6 c 0.043,0.97 0.871,1.71 1.832,1.76 l 3.832,0 c 4.262,0 4.656,-2.42 4.656,-3.45 0,-1.21 -0.593,-2.23 -1.582,-2.86 z m -3.664,7.75 c -4.347,0 -7.836,-3.09 -7.836,-6.88 0,-3.8 3.489,-6.9 7.836,-6.9 4.332,0 7.899,3.1 7.899,6.9 0,3.79 -3.567,6.88 -7.899,6.88 z m 0,-15.79 c -5.418,0 -9.922,3.99 -9.922,8.91 0,4.91 4.504,8.92 9.922,8.92 5.438,0 9.91,-4.01 9.91,-8.92 0,-4.92 -4.472,-8.91 -9.91,-8.91"
             inkscape:connector-curvature="0" /><path
             id="path44"
             style="fill:#ffffff;fill-opacity:1;fill-rule:nonzero;stroke:none"
             d="m 682.082,1897.17 0,-111.93 c 0,-10.06 8.648,-18.31 18.887,-18.31 l 0,111.95 c 0,10.05 -8.664,18.29 -18.887,18.29"
             inkscape:connector-curvature="0" /><path
             id="path46"
             style="fill:#ffffff;fill-opacity:1;fill-rule:nonzero;stroke:none"
             d="m 2289.72,1287.23 -131.78,0 0,75.49 131.78,0 0,131.06 78.23,0 0,-131.06 131.75,0 0,-75.49 -131.75,0 0,-131.07 -78.23,0 0,131.07"
             inkscape:connector-curvature="0" /><path
             id="path48"
             style="fill:#e32124;fill-opacity:1;fill-rule:nonzero;stroke:none"
             d="m 154.426,1607.94 92.566,0 0,-442.74 277.16,0 0,-84.36 -369.726,0 0,527.1"
             inkscape:connector-curvature="0" /><path
             id="path50"
             style="fill:#e32124;fill-opacity:1;fill-rule:nonzero;stroke:none"
             d="m 585.105,1478.45 91.075,0 0,-397.61 -91.075,0 z m -3.832,147.59 97.946,0 0,-86.61 -97.946,0 0,86.61"
             inkscape:connector-curvature="0" /><path
             id="path52"
             style="fill:#e32124;fill-opacity:1;fill-rule:nonzero;stroke:none"
             d="m 765.07,1478.45 91.16,0 0,-61.79 c 25.551,37.71 62.473,70.09 124.188,70.09 89.662,0 141.612,-60.27 141.612,-152.87 l 0,-253.04 -91.19,0 0,225.91 c 0,61.73 -30.82,97.13 -85.028,97.13 -52.738,0 -89.582,-36.92 -89.582,-98.65 l 0,-224.39 -91.16,0 0,397.61"
             inkscape:connector-curvature="0" /><path
             id="path54"
             style="fill:#e32124;fill-opacity:1;fill-rule:nonzero;stroke:none"
             d="m 1197.29,1225.39 0,253.06 91.06,0 0,-225.9 c 0,-61.78 30.91,-97.16 85.13,-97.16 52.64,0 89.63,36.91 89.63,98.62 l 0,224.44 91.07,0 0,-397.61 -91.07,0 0,61.75 c -25.62,-37.66 -62.49,-70.04 -124.31,-70.04 -89.61,0 -141.51,60.25 -141.51,152.84"
             inkscape:connector-curvature="0" /><path
             id="path56"
             style="fill:#e32124;fill-opacity:1;fill-rule:nonzero;stroke:none"
             d="m 1749.93,1282.66 -140.84,195.79 99.42,0 91.85,-131.02 91.93,131.02 97.1,0 -140.78,-193.53 146.81,-204.08 -99.42,0 -97.89,139.31 -97.13,-139.31 -97.13,0 146.08,201.82"
             inkscape:connector-curvature="0" /><path
             id="path138"
             style="fill:#3d4850;fill-opacity:1;fill-rule:nonzero;stroke:none"
             d="m 158.195,754.352 0,0.609 c 0,60.469 45.266,109.98 109.664,109.98 39.192,0 62.895,-13.671 83.235,-33.132 l -23.992,-27.618 c -17.008,15.778 -35.231,26.43 -59.543,26.43 -40.395,0 -70.172,-33.43 -70.172,-75.051 l 0,-0.609 c 0,-41.6016 29.472,-75.3399 70.172,-75.3399 26.125,0 42.839,10.3281 61.062,27.3477 l 23.996,-24.2969 C 330.449,659.5898 306.137,645 266.352,645 204.371,645 158.195,693.3008 158.195,754.352"
             inkscape:connector-curvature="0" /><path
             id="path140"
             style="fill:#3d4850;fill-opacity:1;fill-rule:nonzero;stroke:none"
             d="m 476.758,861.289 157.652,0 0,-33.41 -120.289,0 0,-55.289 106.633,0 0,-33.4103 -106.633,0 0,-57.1211 121.813,0 0,-33.39844 -159.176,0 0,212.62884"
             inkscape:connector-curvature="0" /><path
             id="path142"
             style="fill:#3d4850;fill-opacity:1;fill-rule:nonzero;stroke:none"
             d="m 857.301,755.871 c 26.719,0 43.742,13.981 43.742,35.57 l 0,0.598 c 0,22.781 -16.414,35.231 -44.047,35.231 l -54.383,0 0,-71.399 z m -92.047,105.418 94.773,0 c 26.735,0 47.7,-7.891 61.371,-21.258 11.235,-11.543 17.614,-27.34 17.614,-45.89 l 0,-0.602 c 0,-34.93 -20.965,-55.8788 -50.426,-64.3984 L 946,648.66016 l -44.352,0 -52.25,74.10934 -46.785,0 0,-74.10934 -37.359,0 0,212.62884"
             inkscape:connector-curvature="0" /><path
             id="path144"
             style="fill:#3d4850;fill-opacity:1;fill-rule:nonzero;stroke:none"
             d="m 1121.18,826.672 -67.45,0 0,34.617 172.56,0 0,-34.617 -67.45,0 0,-178.01184 -37.66,0 0,178.01184"
             inkscape:connector-curvature="0" /><path
             id="path146"
             style="fill:#3d4850;fill-opacity:1;fill-rule:nonzero;stroke:none"
             d="m 1352.85,648.66016 37.3789,0 0,212.629 -37.3789,0 z"
             inkscape:connector-curvature="0" /><path
             id="path148"
             style="fill:#3d4850;fill-opacity:1;fill-rule:nonzero;stroke:none"
             d="m 1532.02,861.289 158.26,0 0,-34.019 -120.9,0 0,-58.032 107.22,0 0,-34.0075 -107.22,0 0,-86.57034 -37.36,0 0,212.62884"
             inkscape:connector-curvature="0" /><path
             id="path150"
             style="fill:#3d4850;fill-opacity:1;fill-rule:nonzero;stroke:none"
             d="m 1818.36,648.66016 37.3789,0 0,212.629 -37.3789,0 z"
             inkscape:connector-curvature="0" /><path
             id="path152"
             style="fill:#3d4850;fill-opacity:1;fill-rule:nonzero;stroke:none"
             d="m 1997.54,861.289 157.65,0 0,-33.41 -120.29,0 0,-55.289 106.64,0 0,-33.4103 -106.64,0 0,-57.1211 121.82,0 0,-33.39844 -159.18,0 0,212.62884"
             inkscape:connector-curvature="0" /><path
             id="path154"
             style="fill:#3d4850;fill-opacity:1;fill-rule:nonzero;stroke:none"
             d="m 2323.4,827.27 0,-144.5981 41.93,0 c 44.65,0 73.81,30.0781 73.81,71.6801 l 0,0.609 c 0,41.617 -29.16,72.309 -73.81,72.309 z m -37.36,34.019 79.29,0 c 66.82,0 112.99,-45.859 112.99,-105.719 l 0,-0.609 c 0,-59.8399 -46.17,-106.30084 -112.99,-106.30084 l -79.29,0 0,212.62884"
             inkscape:connector-curvature="0" /></g></g></g></g></svg>