<?xml version="1.0" encoding="UTF-8" standalone="no"?>
<svg
   xmlns:dc="http://purl.org/dc/elements/1.1/"
   xmlns:cc="http://creativecommons.org/ns#"
   xmlns:rdf="http://www.w3.org/1999/02/22-rdf-syntax-ns#"
   xmlns:svg="http://www.w3.org/2000/svg"
   xmlns="http://www.w3.org/2000/svg"
   xmlns:sodipodi="http://sodipodi.sourceforge.net/DTD/sodipodi-0.dtd"
   xmlns:inkscape="http://www.inkscape.org/namespaces/inkscape"
   viewBox="0 0 109.80413 33.151466"
   height="33.151466"
   width="109.80413"
   xml:space="preserve"
   id="svg2"
   version="1.1"
   inkscape:version="0.91 r13725"
   sodipodi:docname="comptia_network.svg"><sodipodi:namedview
     pagecolor="#ffffff"
     bordercolor="#666666"
     borderopacity="1"
     objecttolerance="10"
     gridtolerance="10"
     guidetolerance="10"
     inkscape:pageopacity="0"
     inkscape:pageshadow="2"
     inkscape:window-width="956"
     inkscape:window-height="1041"
     id="namedview39"
     showgrid="false"
     fit-margin-top="0"
     fit-margin-left="0"
     fit-margin-right="0"
     fit-margin-bottom="0"
     borderlayer="true"
     inkscape:zoom="2.2535544"
     inkscape:cx="48.447336"
     inkscape:cy="14.074936"
     inkscape:window-x="960"
     inkscape:window-y="18"
     inkscape:window-maximized="0"
     inkscape:current-layer="g12" /><metadata
     id="metadata8"><rdf:RDF><cc:Work
         rdf:about=""><dc:format>image/svg+xml</dc:format><dc:type
           rdf:resource="http://purl.org/dc/dcmitype/StillImage" /><dc:title /></cc:Work></rdf:RDF></metadata><defs
     id="defs6" /><g
     transform="matrix(1.3333333,0,0,-1.3333333,-21.885999,61.409865)"
     id="g10"><g
       transform="scale(0.1,0.1)"
       id="g12"><path
         id="path14"
         style="fill:#303843;fill-opacity:1;fill-rule:nonzero;stroke:none"
         d="m 323.301,235.977 0,0.089 c 0,8.895 6.664,16.18 16.137,16.18 5.765,0 9.253,-2.012 12.25,-4.871 l -3.536,-4.066 c -2.5,2.324 -5.183,3.886 -8.757,3.886 -5.946,0 -10.329,-4.918 -10.329,-11.039 l 0,-0.09 c 0,-6.125 4.336,-11.086 10.329,-11.086 3.843,0 6.3,1.52 8.984,4.024 l 3.527,-3.578 c -3.261,-3.395 -6.836,-5.543 -12.691,-5.543 -9.117,0 -15.914,7.109 -15.914,16.094"
         inkscape:connector-curvature="0" /><path
         id="path16"
         style="fill:#303843;fill-opacity:1;fill-rule:nonzero;stroke:none"
         d="m 366.613,251.711 23.199,0 0,-4.918 -17.703,0 0,-8.133 15.692,0 0,-4.918 -15.692,0 0,-8.406 17.926,0 0,-4.914 -23.422,0 0,31.289"
         inkscape:connector-curvature="0" /><path
         id="path18"
         style="fill:#303843;fill-opacity:1;fill-rule:nonzero;stroke:none"
         d="m 419.043,236.199 c 3.934,0 6.437,2.055 6.437,5.231 l 0,0.086 c 0,3.355 -2.414,5.187 -6.484,5.187 l -8,0 0,-10.504 z m -13.543,15.512 13.945,0 c 3.934,0 7.02,-1.164 9.028,-3.129 1.656,-1.699 2.593,-4.023 2.593,-6.75 l 0,-0.09 c 0,-5.14 -3.086,-8.226 -7.418,-9.476 l 8.446,-11.844 -6.528,0 -7.683,10.902 -6.887,0 0,-10.902 -5.496,0 0,31.289"
         inkscape:connector-curvature="0" /><path
         id="path20"
         style="fill:#303843;fill-opacity:1;fill-rule:nonzero;stroke:none"
         d="m 454.309,246.613 -9.922,0 0,5.098 25.386,0 0,-5.098 -9.921,0 0,-26.191 -5.543,0 0,26.191"
         inkscape:connector-curvature="0" /><path
         id="path22"
         style="fill:#303843;fill-opacity:1;fill-rule:nonzero;stroke:none"
         d="m 484.836,220.422 5.5,0 0,31.2891 -5.5,0 z"
         inkscape:connector-curvature="0" /><path
         id="path24"
         style="fill:#303843;fill-opacity:1;fill-rule:nonzero;stroke:none"
         d="m 507.633,251.711 23.289,0 0,-5.008 -17.793,0 0,-8.535 15.781,0 0,-5.008 -15.781,0 0,-12.738 -5.496,0 0,31.289"
         inkscape:connector-curvature="0" /><path
         id="path26"
         style="fill:#303843;fill-opacity:1;fill-rule:nonzero;stroke:none"
         d="m 546.203,220.422 5.5,0 0,31.2891 -5.5,0 z"
         inkscape:connector-curvature="0" /><path
         id="path28"
         style="fill:#303843;fill-opacity:1;fill-rule:nonzero;stroke:none"
         d="m 569,251.711 23.199,0 0,-4.918 -17.699,0 0,-8.133 15.688,0 0,-4.918 -15.688,0 0,-8.406 17.922,0 0,-4.914 -23.422,0 0,31.289"
         inkscape:connector-curvature="0" /><path
         id="path30"
         style="fill:#303843;fill-opacity:1;fill-rule:nonzero;stroke:none"
         d="m 613.387,246.703 0,-21.277 6.168,0 c 6.57,0 10.859,4.426 10.859,10.551 l 0,0.089 c 0,6.122 -4.289,10.637 -10.859,10.637 z m -5.5,5.008 11.668,0 c 9.832,0 16.625,-6.75 16.625,-15.555 l 0,-0.09 c 0,-8.804 -6.793,-15.644 -16.625,-15.644 l -11.668,0 0,31.289"
         inkscape:connector-curvature="0" /><path
         id="path32"
         style="fill:#303843;fill-opacity:1;fill-rule:nonzero;stroke:none"
         d="m 911.648,239.738 0,0.149 c 0,10.828 8.454,20.023 19.653,20.023 7.269,0 11.793,-3.039 15.351,-6.824 l -3.781,-4.004 c -3.039,3.188 -6.453,5.785 -11.644,5.785 -7.789,0 -13.719,-6.601 -13.719,-14.836 l 0,-0.144 c 0,-8.305 6.082,-14.907 14.09,-14.907 4.894,0 8.679,2.446 11.718,5.708 l 3.633,-3.411 c -3.855,-4.3 -8.453,-7.418 -15.648,-7.418 -11.199,0 -19.653,9.125 -19.653,19.879"
         inkscape:connector-curvature="0" /><path
         id="path34"
         style="fill:#303843;fill-opacity:1;fill-rule:nonzero;stroke:none"
         d="m 981.891,242.184 c -0.668,6.972 -4.672,12.906 -12.239,12.906 -6.597,0 -11.64,-5.488 -12.457,-12.906 z m -11.2,-17.352 c 5.27,0 8.977,2.148 12.09,5.414 l 3.563,-3.191 c -3.86,-4.301 -8.532,-7.196 -15.797,-7.196 -10.531,0 -19.137,8.086 -19.137,20.028 0,11.125 7.785,20.023 18.395,20.023 11.343,0 17.871,-9.051 17.871,-20.32 0,-0.52 0,-1.113 -0.074,-2 l -30.407,0 c 0.817,-8.086 6.75,-12.758 13.496,-12.758"
         inkscape:connector-curvature="0" /><path
         id="path36"
         style="fill:none;stroke:#a1a7aa;stroke-width:2.01023006;stroke-linecap:butt;stroke-linejoin:miter;stroke-miterlimit:4;stroke-dasharray:none;stroke-opacity:1"
         d="m 872.992,460.574 0,-248.636"
         inkscape:connector-curvature="0" /><path
         id="path40"
         style="fill:#303843;fill-opacity:1;fill-rule:nonzero;stroke:none"
         d="m 788.766,411.238 -89.45,0 0,-107.574 c 0,-3.801 -3.082,-6.875 -6.875,-6.875 l -517.886,0 0,-5.719 614.211,0 c 3.793,0 6.867,3.075 6.867,6.868 l 0,106.429 c 0,3.793 -3.074,6.871 -6.867,6.871"
         inkscape:connector-curvature="0" /><path
         id="path42"
         style="fill:#e32124;fill-opacity:1;fill-rule:nonzero;stroke:none"
         d="m 174.641,291.07 0,113.297 c 0,3.793 3.078,6.871 6.871,6.871 l 137.359,0 0,33.43 c 0,3.793 -3.078,6.867 -6.867,6.867 l -140.984,0 c -3.793,0 -6.875,-3.074 -6.875,-6.867 l 0,-146.73 c 0,-3.79 3.082,-6.868 6.875,-6.868"
         inkscape:connector-curvature="0" /><path
         id="path44"
         style="fill:#ffffff;fill-opacity:1;fill-rule:nonzero;stroke:none"
         d="m 210.395,434.605 c -3.094,0 -5.528,-2.07 -5.528,-4.707 0,-2.636 2.434,-4.671 5.528,-4.671 3.093,0 5.539,2.035 5.539,4.671 0,2.637 -2.446,4.707 -5.539,4.707 z m 0,-12.546 c -4.872,0 -8.688,3.425 -8.688,7.839 0,4.411 3.816,7.868 8.688,7.868 4.871,0 8.691,-3.457 8.691,-7.868 0,-4.414 -3.82,-7.839 -8.691,-7.839"
         inkscape:connector-curvature="0" /><path
         id="path46"
         style="fill:#ffffff;fill-opacity:1;fill-rule:nonzero;stroke:none"
         d="m 241.48,422.059 c -1.753,0 -3.171,1.453 -3.171,3.226 l 0,6.524 c 0,1.546 -1.344,2.796 -3.028,2.796 -1.648,0 -2.992,-1.25 -2.992,-2.796 0,0 0,0 0,-9.75 -1.746,0 -3.16,1.418 -3.16,3.168 l 0,6.582 c 0,1.546 -1.348,2.796 -3.031,2.796 -1.645,0 -2.993,-1.25 -2.993,-2.796 l 0,-6.551 c 0,-1.746 -1.421,-3.199 -3.164,-3.199 l 0,9.75 c 0,3.289 2.758,5.957 6.157,5.957 1.843,0 3.492,-0.75 4.605,-1.969 1.125,1.219 2.766,1.969 4.578,1.969 3.422,0 6.199,-2.668 6.199,-5.957 l 0,-9.75"
         inkscape:connector-curvature="0" /><path
         id="path48"
         style="fill:#ffffff;fill-opacity:1;fill-rule:nonzero;stroke:none"
         d="m 251.746,422.094 c -0.82,0 -1.621,0.066 -2.344,0.234 -1.64,0.457 -2.59,2.168 -2.164,3.817 0.059,0.199 0.125,0.39 0.196,0.558 l 0.031,0.031 c 0.887,-0.984 2.332,-1.476 4.281,-1.476 2.891,0 5.172,2.043 5.172,4.605 0,2.672 -2.281,4.778 -5.172,4.778 -2.734,0 -5.469,-1.516 -5.469,-4.84 l 0,-10.239 c 0,-1.714 -1.441,-3.097 -3.16,-3.097 l 0,13.336 c 0,4.609 3.625,7.996 8.629,7.996 2.203,0 4.277,-0.82 5.852,-2.274 1.582,-1.476 2.468,-3.488 2.468,-5.66 0,-4.34 -3.644,-7.769 -8.32,-7.769"
         inkscape:connector-curvature="0" /><path
         id="path50"
         style="fill:#ffffff;fill-opacity:1;fill-rule:nonzero;stroke:none"
         d="m 274.297,440.766 -6.766,0 0,-18.707 -0.14,0 c -1.68,0 -3.024,1.453 -3.024,3.168 l 0,15.539 -6.777,0 c -1.711,0 -3.082,1.418 -3.082,3.125 l 22.91,0 c 0,-1.707 -1.387,-3.125 -3.121,-3.125"
         inkscape:connector-curvature="0" /><path
         id="path52"
         style="fill:#ffffff;fill-opacity:1;fill-rule:nonzero;stroke:none"
         d="m 294.344,440.625 -4.496,-9.871 8.472,0 -4.515,9.906 z m 7.008,-16.574 -1.676,3.605 -11.223,0 -1.664,-3.711 c -0.781,-1.492 -2.859,-1.929 -4.457,-1.929 l 9.145,20.062 c 0.527,1.152 1.449,1.813 2.515,1.813 1.059,0 2.008,-0.661 2.528,-1.813 l 9.05,-19.82 c -1.707,-0.16 -3.554,0.34 -4.218,1.793"
         inkscape:connector-curvature="0" /><path
         id="path54"
         style="fill:#ffffff;fill-opacity:1;fill-rule:nonzero;stroke:none"
         d="m 198.156,437.996 c -1.715,1.809 -4.218,3 -6.984,3 -4.899,0 -8.895,-3.558 -8.895,-7.937 0,-4.383 3.996,-7.969 8.895,-7.969 2.344,0 4.551,0.89 6.226,2.301 1.153,0.957 2.872,0.894 3.981,-0.063 -0.852,-1.316 -2.004,-2.465 -3.422,-3.359 -2.008,-1.281 -4.348,-1.942 -6.785,-1.942 -6.617,0 -11.984,4.946 -11.984,11.032 0,6.089 5.367,11.035 11.984,11.035 4.707,0 8.992,-2.574 10.898,-6.528 -1.211,-0.789 -2.894,-0.687 -3.914,0.43"
         inkscape:connector-curvature="0" /><path
         id="path56"
         style="fill:#ffffff;fill-opacity:1;fill-rule:nonzero;stroke:none"
         d="m 307.379,424.613 c -0.051,-0.023 -0.094,-0.039 -0.152,-0.058 0,0 0.093,-0.125 0.41,-0.496 l -0.055,-0.051 c -0.133,-0.113 -0.336,-0.094 -0.449,0.027 -0.344,0.422 -0.387,0.469 -0.387,0.469 0,0 -0.051,0 -0.391,0 l 0,0.109 c 0.016,0.153 0.149,0.282 0.305,0.282 l 0.203,0 c 0.129,0 0.242,0.023 0.309,0.074 0.062,0.023 0.074,0.058 0.074,0.125 0,0.051 0,0.179 -0.383,0.179 -0.472,0 -0.551,0 -0.551,0 0,0 0,-0.082 0,-1.027 0,-0.172 -0.14,-0.308 -0.32,-0.308 l -0.078,0 0,1.441 c 0.008,0.16 0.145,0.285 0.305,0.293 l 0.644,0 c 0.711,0 0.778,-0.406 0.778,-0.578 0,-0.203 -0.098,-0.371 -0.262,-0.481 z m -0.617,1.301 c -0.727,0 -1.313,-0.516 -1.313,-1.152 0,-0.637 0.586,-1.157 1.313,-1.157 0.726,0 1.324,0.52 1.324,1.157 0,0.636 -0.598,1.152 -1.324,1.152 z m 0,-2.644 c -0.907,0 -1.66,0.668 -1.66,1.492 0,0.824 0.753,1.496 1.66,1.496 0.914,0 1.664,-0.672 1.664,-1.496 0,-0.824 -0.75,-1.492 -1.664,-1.492"
         inkscape:connector-curvature="0" /><path
         id="path58"
         style="fill:#ffffff;fill-opacity:1;fill-rule:nonzero;stroke:none"
         d="m 278.422,443.883 0,-18.754 c 0,-1.688 1.449,-3.07 3.164,-3.07 l 0,18.757 c 0,1.688 -1.449,3.067 -3.164,3.067"
         inkscape:connector-curvature="0" /><path
         id="path60"
         style="fill:#ffffff;fill-opacity:1;fill-rule:nonzero;stroke:none"
         d="m 737.516,341.688 -22.078,0 0,12.648 22.078,0 0,21.957 13.105,0 0,-21.957 22.074,0 0,-12.648 -22.074,0 0,-21.961 -13.105,0 0,21.961"
         inkscape:connector-curvature="0" /><path
         id="path62"
         style="fill:#e32124;fill-opacity:1;fill-rule:nonzero;stroke:none"
         d="m 189.316,398.113 14.442,0 47.488,-61.301 0,61.301 15.328,0 0,-88.656 -13.047,0 -48.886,63.074 0,-63.074 -15.325,0 0,88.656"
         inkscape:connector-curvature="0" /><path
         id="path64"
         style="fill:#e32124;fill-opacity:1;fill-rule:nonzero;stroke:none"
         d="m 328.363,347.578 c -1.015,9.883 -6.836,17.606 -16.972,17.606 -9.371,0 -15.957,-7.219 -17.352,-17.606 z m -49.515,-4.937 0,0.25 c 0,19.129 13.543,34.828 32.672,34.828 21.277,0 32.039,-16.719 32.039,-35.965 0,-1.391 -0.121,-2.785 -0.254,-4.305 l -49.137,0 c 1.644,-10.894 9.371,-16.969 19.25,-16.969 7.473,0 12.789,2.782 18.109,7.977 l 8.993,-7.977 c -6.332,-7.601 -15.071,-12.539 -27.36,-12.539 -19.375,0 -34.312,14.055 -34.312,34.7"
         inkscape:connector-curvature="0" /><path
         id="path66"
         style="fill:#e32124;fill-opacity:1;fill-rule:nonzero;stroke:none"
         d="m 357.102,327.949 0,35.207 -8.485,0 0,13.168 8.485,0 0,18.371 15.328,0 0,-18.371 17.98,0 0,-13.168 -17.98,0 0,-32.801 c 0,-5.953 3.035,-8.359 8.23,-8.359 3.418,0 6.457,0.762 9.496,2.277 l 0,-12.535 c -3.797,-2.152 -8.101,-3.422 -13.801,-3.422 -11.273,0 -19.253,4.938 -19.253,19.633"
         inkscape:connector-curvature="0" /><path
         id="path68"
         style="fill:#e32124;fill-opacity:1;fill-rule:nonzero;stroke:none"
         d="m 395.215,376.324 15.707,0 13.426,-45.844 14.816,46.098 13.047,0 14.937,-46.098 13.676,45.844 15.328,0 -21.91,-67.375 -13.676,0 -14.945,45.723 -15.07,-45.723 -13.68,0 -21.656,67.375"
         inkscape:connector-curvature="0" /><path
         id="path70"
         style="fill:#e32124;fill-opacity:1;fill-rule:nonzero;stroke:none"
         d="m 553.902,342.512 0,0.254 c 0,11.777 -8.476,21.531 -20.515,21.531 -12.285,0 -20.133,-9.625 -20.133,-21.277 l 0,-0.254 c 0,-11.653 8.484,-21.528 20.387,-21.528 12.418,0 20.261,9.754 20.261,21.274 z m -55.972,0 0,0.254 c 0,19.121 15.195,34.953 35.711,34.953 20.515,0 35.586,-15.578 35.586,-34.699 l 0,-0.254 c 0,-19 -15.192,-34.825 -35.84,-34.825 -20.383,0 -35.457,15.575 -35.457,34.571"
         inkscape:connector-curvature="0" /><path
         id="path72"
         style="fill:#e32124;fill-opacity:1;fill-rule:nonzero;stroke:none"
         d="m 579.73,376.324 15.329,0 0,-15.07 c 4.179,10.004 11.902,16.844 23.687,16.34 l 0,-16.211 -0.887,0 c -13.429,0 -22.8,-8.738 -22.8,-26.469 l 0,-25.457 -15.329,0 0,66.867"
         inkscape:connector-curvature="0" /><path
         id="path74"
         style="fill:#e32124;fill-opacity:1;fill-rule:nonzero;stroke:none"
         d="m 626.969,401.91 15.324,0 0,-55.219 27.73,29.633 18.625,0 -26.601,-27.222 27.484,-39.645 -17.726,0 -20.137,28.875 -9.375,-9.754 0,-19.121 -15.324,0 0,92.453"
         inkscape:connector-curvature="0" /><path
         id="path76"
         style="fill:#303843;fill-opacity:1;fill-rule:nonzero;stroke:none"
         d="m 808.859,300.066 c 0.953,0 1.516,0.465 1.516,1.196 l 0,0.039 c 0,0.765 -0.563,1.191 -1.516,1.191 l -1.906,0 0,-2.426 z m -3.359,3.746 3.418,0 c 1.016,0 1.797,-0.308 2.332,-0.835 0.398,-0.379 0.621,-0.926 0.621,-1.594 l 0,-0.039 c 0,-1.242 -0.73,-2.004 -1.777,-2.313 l 2.066,-2.89 -1.742,0 -1.871,2.648 -1.594,0 0,-2.648 -1.453,0 z m 9.508,-4.05 0,0.043 c 0,3.625 -2.813,6.558 -6.539,6.558 -3.742,0 -6.574,-2.976 -6.574,-6.601 l 0,-0.043 c 0,-3.621 2.804,-6.555 6.539,-6.555 3.742,0 6.574,2.977 6.574,6.598 z m -13.887,-0.043 0,0.043 c 0,3.992 3.246,7.332 7.348,7.332 4.117,0 7.304,-3.297 7.304,-7.289 l 0,-0.043 c 0,-3.989 -3.23,-7.328 -7.339,-7.328 -4.118,0 -7.313,3.296 -7.313,7.285"
         inkscape:connector-curvature="0" /></g></g></svg>