<?xml version="1.0" encoding="UTF-8" standalone="no"?>
<svg
   xmlns:dc="http://purl.org/dc/elements/1.1/"
   xmlns:cc="http://creativecommons.org/ns#"
   xmlns:rdf="http://www.w3.org/1999/02/22-rdf-syntax-ns#"
   xmlns:svg="http://www.w3.org/2000/svg"
   xmlns="http://www.w3.org/2000/svg"
   viewBox="0 0 96.466667 92.720001"
   height="92.720001"
   width="96.466667"
   xml:space="preserve"
   id="svg2"
   version="1.1"><metadata
     id="metadata8"><rdf:RDF><cc:Work
         rdf:about=""><dc:format>image/svg+xml</dc:format><dc:type
           rdf:resource="http://purl.org/dc/dcmitype/StillImage" /></cc:Work></rdf:RDF></metadata><defs
     id="defs6"><clipPath
       id="clipPath20"
       clipPathUnits="userSpaceOnUse"><path
         id="path18"
         d="M 0,0 H 723.52 V 695 H 0 Z" /></clipPath></defs><g
     transform="matrix(1.3333333,0,0,-1.3333333,0,92.72)"
     id="g10"><g
       transform="scale(0.1)"
       id="g12"><g
         id="g14"><g
           clip-path="url(#clipPath20)"
           id="g16"><path
             id="path22"
             style="fill:#283a80;fill-opacity:1;fill-rule:nonzero;stroke:none"
             d="M 0,347.715 C 0,539.766 161.969,695.449 361.762,695.449 561.555,695.449 723.52,539.766 723.52,347.715 723.52,155.676 561.555,0 361.762,0 161.969,0 0,155.676 0,347.715" /><path
             id="path24"
             style="fill:#ffffff;fill-opacity:1;fill-rule:nonzero;stroke:none"
             d="m 28.9609,347.715 h 7.3086 c 0.0157,86.418 36.4141,164.59 95.3355,221.23 58.918,56.629 140.254,91.621 230.157,91.637 89.898,-0.016 171.218,-35.008 230.148,-91.637 58.918,-56.64 95.336,-134.812 95.336,-221.23 0,-86.406 -36.418,-164.578 -95.336,-221.223 C 532.98,69.8633 451.66,34.8633 361.762,34.8633 c -89.903,0 -171.239,35 -230.157,91.6287 -58.9214,56.645 -95.3198,134.817 -95.3355,221.223 h -14.625 c 0,-180.547 152.2655,-326.9142 340.1175,-326.9142 187.828,0 340.109,146.3672 340.109,326.9142 0,180.566 -152.281,326.918 -340.109,326.918 -187.852,0 -340.1175,-146.352 -340.1175,-326.918 h 7.3164" /><path
             id="path26"
             style="fill:#ffffff;fill-opacity:1;fill-rule:nonzero;stroke:none"
             d="m 93.7891,209.598 -4.0625,8.468 55.9574,24.446 -12.137,25.32 10.656,4.648 16.203,-33.808 -66.6169,-29.074" /><path
             id="path28"
             style="fill:#ffffff;fill-opacity:1;fill-rule:nonzero;stroke:none"
             d="m 82.0508,260.828 -11.5274,-3.269 -2.9765,9.414 11.5273,3.281 z m 60.9612,17.766 -52.9495,-15.078 -2.7695,8.769 52.949,15.078 2.77,-8.769" /><path
             id="path30"
             style="fill:#ffffff;fill-opacity:1;fill-rule:nonzero;stroke:none"
             d="m 135.766,304.863 1.496,-9.043 -54.6722,-7.949 -1.4921,9.043 8.4882,1.231 c -5.5976,1.785 -10.6601,4.804 -11.6718,10.917 -1.4688,8.915 5.9531,15.254 18.6875,17.129 l 34.7854,5.059 1.511,-9.043 -31.066,-4.531 c -8.4922,-1.231 -12.8515,-4.992 -11.9609,-10.371 0.8711,-5.235 6.5547,-8.164 15.0389,-6.934 l 30.856,4.492" /><path
             id="path32"
             style="fill:#ffffff;fill-opacity:1;fill-rule:nonzero;stroke:none"
             d="m 76.3672,366.543 0.2578,9.141 55.352,-1.899 -0.258,-9.137 -8.594,0.293 c 5.164,-2.746 9.563,-6.597 9.379,-12.793 -0.254,-8.984 -8.781,-13.906 -21.684,-13.476 l -35.2145,1.219 0.2578,9.132 31.4457,-1.085 c 8.593,-0.301 13.621,2.628 13.769,8.078 0.156,5.285 -4.879,9.164 -13.473,9.453 l -31.2378,1.074" /><path
             id="path34"
             style="fill:#ffffff;fill-opacity:1;fill-rule:nonzero;stroke:none"
             d="m 140.805,416.434 -2.157,-9.723 -21.093,-5.59 16.863,-13.531 -2.109,-9.535 -24.317,20.148 -29.7186,-8.141 2.1563,9.743 19.8363,5.211 -15.8519,12.789 2.1211,9.523 23.3008,-19.383 30.969,8.489" /><path
             id="path36"
             style="fill:#ffffff;fill-opacity:1;fill-rule:nonzero;stroke:none"
             d="m 141.316,472.613 -5.32,-9.136 20.606,-11.211 -4.711,-8.078 -64.0941,34.878 10.5703,18.125 c 6.2378,10.719 18.6098,12.891 31.7068,5.747 14.465,-7.844 17.149,-20.219 11.242,-30.325 m -33.074,18.348 -5.488,-9.391 23.074,-12.562 5.488,9.39 c 3.555,6.106 1.11,12.461 -5.754,16.2 -7.597,4.132 -13.792,2.406 -17.32,-3.637" /><path
             id="path38"
             style="fill:#ffffff;fill-opacity:1;fill-rule:nonzero;stroke:none"
             d="m 182.398,490.469 -5.945,-7.106 -43.254,33.532 5.942,7.089 9.742,-7.558 c -4.856,6.961 -6.289,13.965 -1.399,19.16 l 10.485,-8.129 -0.34,-0.406 c -5.203,-6.215 -3.164,-14.938 8.293,-23.832 l 16.476,-12.75" /><path
             id="path40"
             style="fill:#ffffff;fill-opacity:1;fill-rule:nonzero;stroke:none"
             d="m 208.949,515.855 c -9.359,-8.125 -24.965,-4.925 -35.625,6.395 -10.758,11.387 -12.621,26.832 -3.211,35.02 9.407,8.175 25.016,4.964 35.77,-6.422 10.676,-11.321 12.523,-26.75 3.066,-34.993 m -31.465,33.364 c -5.629,-4.903 -3.851,-13.727 2.719,-20.699 6.645,-7.04 15.988,-9.442 21.445,-4.692 5.68,4.957 3.926,13.777 -2.664,20.75 -6.64,7.043 -15.98,9.445 -21.5,4.641" /><path
             id="path42"
             style="fill:#ffffff;fill-opacity:1;fill-rule:nonzero;stroke:none"
             d="m 218.609,589.91 5.762,-8.465 -9.059,-5.648 24.434,-35.891 -7.949,-4.965 -24.438,35.875 -4.394,-2.754 -5.82,8.555 4.398,2.742 -2.195,3.207 c -6.684,9.821 -6.164,17.039 0.668,21.309 2.773,1.719 5.007,2.391 7.246,2.832 l 5.879,-8.633 c -2.036,-0.316 -3.707,-0.746 -5.411,-1.804 -3.011,-1.895 -3.16,-5.004 0.008,-9.645 l 1.672,-2.465 9.199,5.75" /><path
             id="path44"
             style="fill:#ffffff;fill-opacity:1;fill-rule:nonzero;stroke:none"
             d="m 264.773,562.77 c 4.215,1.839 6.239,5.179 7.422,10.246 l 7.844,-3.563 c -0.914,-7.066 -4.125,-12.805 -11.035,-15.836 -10.922,-4.765 -24.242,1.731 -31.469,16.77 -6.707,13.953 -4.543,28.683 6.235,33.386 11.984,5.247 23.871,-4.195 30.617,-18.238 0.492,-1.019 0.855,-1.965 1.304,-3.094 L 248.02,570.312 c 4.792,-7.429 11.191,-9.968 16.753,-7.542 m -1.023,23.324 c -4.016,6.902 -9.988,11.074 -15.684,8.558 -5.293,-2.3 -6.48,-9.164 -3.652,-17.011 l 19.336,8.453" /><path
             id="path46"
             style="fill:#ffffff;fill-opacity:1;fill-rule:nonzero;stroke:none"
             d="m 305.316,566.055 c -5.691,-1.407 -12.738,-0.356 -19.164,3.461 l 1.875,9.023 c 5.496,-3.109 10.805,-4.082 14.907,-3.062 3.941,1.003 5.64,3.707 4.683,7.121 l -0.055,0.183 c -1.109,4.012 -5.742,4.297 -10.976,4.981 -6.52,0.683 -13.996,2.14 -16.742,11.992 l -0.047,0.207 c -2.723,9.742 1.926,17.262 9.91,19.258 5.004,1.25 11.105,0.379 16.352,-2.172 l -1.297,-9.293 c -4.719,2.051 -9.336,2.887 -12.684,2.051 -3.578,-0.899 -5.023,-3.555 -4.183,-6.586 l 0.05,-0.176 c 1.035,-3.719 5.801,-4.195 11.055,-4.969 6.504,-0.883 14.062,-2.64 16.641,-11.918 l 0.05,-0.187 c 3.024,-10.832 -2.015,-17.821 -10.375,-19.914" /><path
             id="path48"
             style="fill:#ffffff;fill-opacity:1;fill-rule:nonzero;stroke:none"
             d="m 339.57,571.914 c -5.863,-0.59 -12.656,1.481 -18.414,6.195 l 3.274,8.629 c 4.941,-3.867 10.05,-5.597 14.261,-5.179 4.079,0.394 6.164,2.843 5.758,6.339 l -0.015,0.207 c -0.481,4.106 -5.024,5.079 -10.079,6.508 -6.359,1.606 -13.527,4.133 -14.691,14.27 l -0.023,0.199 c -1.149,10.023 4.632,16.781 12.839,17.594 5.161,0.5 11.051,-1.242 15.86,-4.528 l -2.77,-8.984 c -4.336,2.703 -8.785,4.199 -12.211,3.856 -3.675,-0.356 -5.543,-2.766 -5.175,-5.879 l 0.023,-0.2 c 0.438,-3.804 5.074,-4.964 10.156,-6.5 6.293,-1.816 13.485,-4.66 14.59,-14.179 l 0.027,-0.211 c 1.274,-11.121 -4.804,-17.301 -13.41,-18.137" /><path
             id="path50"
             style="fill:#ffffff;fill-opacity:1;fill-rule:nonzero;stroke:none"
             d="m 362.398,635.434 10.215,-0.164 0.114,11.574 -10.227,0.164 z m -0.195,-61.372 9.508,-0.152 0.508,53.195 -9.508,0.149 -0.508,-53.192" /><path
             id="path52"
             style="fill:#ffffff;fill-opacity:1;fill-rule:nonzero;stroke:none"
             d="m 400.152,569.93 c -12.515,1.961 -19.777,15.644 -17.343,30.644 2.445,15.129 13.793,26.086 26.375,24.117 12.593,-1.988 19.855,-15.671 17.41,-30.785 -2.434,-15 -13.774,-25.972 -26.442,-23.976 m 7.168,44.246 c -7.547,1.176 -13.574,-5.621 -15.078,-14.86 -1.512,-9.355 2.446,-17.824 9.766,-18.968 7.605,-1.188 13.644,5.593 15.148,14.832 1.512,9.367 -2.445,17.824 -9.836,18.996" /><path
             id="path54"
             style="fill:#ffffff;fill-opacity:1;fill-rule:nonzero;stroke:none"
             d="m 436.469,562.715 -8.93,3.238 19.18,49.75 8.926,-3.234 -2.973,-7.735 c 4.32,3.805 9.496,6.551 15.543,4.364 8.781,-3.184 10.973,-12.567 6.492,-24.153 l -12.203,-31.656 -8.926,3.234 10.895,28.258 c 2.988,7.723 1.672,13.254 -3.653,15.18 -5.16,1.879 -10.547,-1.43 -13.535,-9.164 l -10.816,-28.082" /><path
             id="path56"
             style="fill:#ffffff;fill-opacity:1;fill-rule:nonzero;stroke:none"
             d="m 490.996,537.203 3.512,5.57 c -4.75,-2.261 -10.238,-2.929 -15.637,0.215 -6.742,3.953 -9.601,12.324 -3.871,21.438 l 0.105,0.172 c 6.165,9.797 15.325,11.023 23.602,6.168 4.32,-2.528 6.605,-4.918 8.676,-7.661 l 0.683,1.114 c 3.95,6.269 3.012,11.527 -2.656,14.84 -3.965,2.336 -7.644,2.953 -11.953,3.132 l 3.004,9.629 c 5.316,-0.054 10.133,-0.746 15.926,-4.144 10.523,-6.153 11.222,-16.203 3.593,-28.313 l -16.894,-26.902 z m 12.289,19.121 c -1.43,2.262 -3.836,4.727 -7.012,6.582 -5.121,3.008 -9.832,2.11 -12.757,-2.523 l -0.098,-0.184 c -2.695,-4.297 -1.184,-8.476 2.668,-10.726 5.394,-3.145 11.863,-1.657 15.422,4.019 l 1.777,2.832" /><path
             id="path58"
             style="fill:#ffffff;fill-opacity:1;fill-rule:nonzero;stroke:none"
             d="m 505.742,526.938 47.77,57.085 7.433,-5.761 -47.777,-57.102 -7.426,5.778" /><path
             id="path60"
             style="fill:#ffffff;fill-opacity:1;fill-rule:nonzero;stroke:none"
             d="m 602.297,533.613 -56.242,-44.863 -6.227,7.188 56.258,44.851 6.211,-7.176" /><path
             id="path62"
             style="fill:#ffffff;fill-opacity:1;fill-rule:nonzero;stroke:none"
             d="m 557.906,473.395 -5.015,7.796 47.035,27.715 5.023,-7.812 -7.308,-4.309 c 5.867,0.434 11.718,-0.476 15.129,-5.75 4.925,-7.695 0.668,-16.34 -10.29,-22.797 l -29.929,-17.617 -5.012,7.813 26.719,15.73 c 7.301,4.297 9.789,9.414 6.793,14.055 -2.891,4.523 -9.289,5.117 -16.598,0.808 l -26.547,-15.632" /><path
             id="path64"
             style="fill:#ffffff;fill-opacity:1;fill-rule:nonzero;stroke:none"
             d="m 580.035,430.629 c -2.199,5.269 -2.027,12.121 1.074,18.676 l 9.579,-0.754 c -2.512,-5.602 -2.821,-10.781 -1.231,-14.571 1.543,-3.652 4.559,-4.957 7.961,-3.652 l 0.187,0.07 c 3.993,1.536 3.696,5.981 3.719,11.036 -0.152,6.304 0.391,13.601 10.207,17.339 l 0.188,0.075 c 9.73,3.703 18.101,0.14 21.191,-7.25 1.949,-4.641 1.84,-10.551 -0.113,-15.852 l -9.77,0.176 c 1.5,4.742 1.758,9.238 0.465,12.336 -1.387,3.301 -4.32,4.375 -7.34,3.234 l -0.175,-0.078 c -3.704,-1.398 -3.575,-6 -3.692,-11.105 -0.062,-6.305 -0.902,-13.711 -10.144,-17.239 l -0.176,-0.062 c -10.797,-4.121 -18.695,-0.098 -21.93,7.621" /><path
             id="path66"
             style="fill:#ffffff;fill-opacity:1;fill-rule:nonzero;stroke:none"
             d="m 607.809,405.102 c -4.774,-1.137 -6.239,-3.348 -5.45,-6.356 0.532,-1.984 1.606,-3.605 3.286,-5.07 l -10.055,-2.387 c -2.305,1.797 -3.985,4.059 -4.863,7.352 -1.719,6.535 1.027,12.082 12.808,14.89 l 28.238,6.672 -1.308,4.914 10.582,2.52 1.289,-4.918 14.738,3.472 2.344,-8.867 -14.73,-3.492 2.746,-10.426 -10.559,-2.5 -2.758,10.41 -26.308,-6.214" /><path
             id="path68"
             style="fill:#ffffff;fill-opacity:1;fill-rule:nonzero;stroke:none"
             d="m 594.867,383.539 54.785,7.231 1.364,-9.059 -54.782,-7.231 z m 63.137,8.711 11.918,1.578 1.473,-9.73 -11.915,-1.578 -1.476,9.73" /><path
             id="path70"
             style="fill:#ffffff;fill-opacity:1;fill-rule:nonzero;stroke:none"
             d="m 615.176,354.746 c -4.934,-0.156 -6.848,-2.043 -6.703,-5.117 0.089,-2.051 0.8,-3.867 2.132,-5.617 L 600.23,343.68 c -1.875,2.199 -3.046,4.726 -3.183,8.125 -0.285,6.726 3.582,11.633 15.73,12.007 l 29.133,0.95 -0.215,5.058 10.895,0.364 0.219,-5.067 15.179,0.477 0.403,-9.121 -15.2,-0.493 0.469,-10.718 -10.89,-0.36 -0.469,10.723 -27.125,-0.879" /><path
             id="path72"
             style="fill:#ffffff;fill-opacity:1;fill-rule:nonzero;stroke:none"
             d="m 650.543,304.98 -1.066,-9.062 -55.008,6.418 1.074,9.07 8.535,-0.996 c -4.914,3.145 -8.965,7.344 -8.226,13.504 1.046,8.938 9.988,13.137 22.804,11.641 l 35,-4.071 -1.074,-9.082 -31.238,3.653 c -8.551,0.976 -13.809,-1.524 -14.442,-6.922 -0.617,-5.246 4.051,-9.524 12.594,-10.531 l 31.047,-3.622" /><path
             id="path74"
             style="fill:#ffffff;fill-opacity:1;fill-rule:nonzero;stroke:none"
             d="m 605.859,279.344 c -4.746,1.32 -7.164,0.09 -8.031,-2.899 -0.555,-1.965 -0.457,-3.867 0.262,-5.937 l -10.004,2.715 c -1.094,2.656 -1.402,5.41 -0.453,8.672 1.863,6.472 7.113,9.98 18.844,6.765 l 28.089,-7.644 1.395,4.863 10.508,-2.871 -1.395,-4.863 14.66,-4.004 -2.531,-8.789 -14.664,4.003 -2.949,-10.332 -10.508,2.879 2.965,10.317 -26.188,7.125" /><path
             id="path76"
             style="fill:#ffffff;fill-opacity:1;fill-rule:nonzero;stroke:none"
             d="m 585.398,248.438 c -1.886,-4.075 -1.113,-7.864 1.461,-12.461 l -8.3,-2.266 c -4.145,5.957 -5.668,12.324 -2.579,18.992 4.887,10.52 19.309,14.016 35.004,7.168 14.559,-6.348 23.02,-18.875 18.192,-29.258 -5.383,-11.57 -20.742,-11.902 -35.391,-5.515 -1.058,0.468 -1.976,0.937 -3.101,1.511 l 12.421,26.692 c -8.703,2.629 -15.21,0.508 -17.707,-4.863 m 16.719,-17.051 c 7.731,-2.707 15.039,-2.09 17.602,3.418 2.367,5.086 -1.422,11.054 -8.926,15.222 l -8.676,-18.64" /><path
             id="path78"
             style="fill:#a03653;fill-opacity:1;fill-rule:nonzero;stroke:none"
             d="m 163.629,346.504 c 0,105.984 89.394,191.91 199.664,191.91 110.266,0 199.652,-85.926 199.652,-191.91 0,-105.996 -89.386,-191.934 -199.652,-191.934 -110.27,0 -199.664,85.938 -199.664,191.934" /><path
             id="path80"
             style="fill:#ffffff;fill-opacity:1;fill-rule:nonzero;stroke:none"
             d="m 163.629,346.504 h 4.992 c 0,51.684 21.785,98.434 57.024,132.312 35.23,33.868 83.882,54.797 137.648,54.805 53.769,-0.008 102.398,-20.937 137.648,-54.805 35.243,-33.878 57.02,-80.628 57.02,-132.312 0,-51.692 -21.777,-98.449 -57.02,-132.324 -35.25,-33.868 -83.879,-54.805 -137.648,-54.805 -53.766,0 -102.418,20.937 -137.648,54.805 -35.239,33.875 -57.024,80.632 -57.024,132.324 h -9.988 c 0.012,-108.652 91.637,-196.719 204.66,-196.719 113.023,0 204.641,88.067 204.641,196.719 0,108.641 -91.618,196.715 -204.641,196.715 -113.023,0 -204.648,-88.074 -204.66,-196.715 h 4.996" /><path
             id="path82"
             style="fill:#ffffff;fill-opacity:1;fill-rule:nonzero;stroke:none"
             d="m 568.676,346.055 c 0,-108.907 -91.957,-197.325 -205.278,-197.325 -113.296,0 -205.261,88.418 -205.261,197.325 0,108.914 91.965,197.312 205.261,197.312 113.321,0 205.278,-88.398 205.278,-197.312" /><path
             id="path84"
             style="fill:#283a80;fill-opacity:1;fill-rule:nonzero;stroke:none"
             d="m 517.113,346.055 c 0,-81.668 -68.965,-147.95 -153.922,-147.95 -84.964,0 -153.929,66.282 -153.929,147.95 0,81.668 68.965,147.949 153.929,147.949 84.957,0 153.922,-66.281 153.922,-147.949" /><path
             id="path86"
             style="fill:#ffffff;fill-opacity:1;fill-rule:nonzero;stroke:none"
             d="m 455.703,420.23 c 0,-13.558 -11.457,-24.57 -25.562,-24.57 -14.102,0 -25.555,11.012 -25.555,24.57 0,13.543 11.453,24.567 25.555,24.567 14.105,0 25.562,-11.024 25.562,-24.567" /><path
             id="path88"
             style="fill:#ffffff;fill-opacity:1;fill-rule:nonzero;stroke:none"
             d="M 389.055,469.566 H 337.699 L 276.094,247.48 h 174.582 l 13.676,49.356 H 341.699 l 47.356,172.73" /><path
             id="path90"
             style="fill:#ffffff;fill-opacity:1;fill-rule:nonzero;stroke:none"
             d="m 177.688,147.051 c -4.833,4.14 -4.7,11.922 0.292,17.363 5,5.398 13.036,6.473 17.864,2.363 4.824,-4.121 4.691,-11.933 -0.297,-17.363 -5,-5.41 -13.035,-6.484 -17.859,-2.363" /><path
             id="path92"
             style="fill:#ffffff;fill-opacity:1;fill-rule:nonzero;stroke:none"
             d="m 254.555,80.5469 17.652,51.7971 10.105,-3.262 -14.132,-41.4375 22.894,-7.3711 -3.535,-10.3711 -32.984,10.6446" /><path
             id="path94"
             style="fill:#ffffff;fill-opacity:1;fill-rule:nonzero;stroke:none"
             d="m 322.422,80.3047 -7.984,1.1875 -2.489,-16.2188 -10.519,1.5704 8.281,54.0152 19.527,-2.91 c 11.407,-1.687 17.125,-10.351 15.43,-21.3865 l -0.012,-0.1563 C 342.734,83.9258 333.137,78.7109 322.422,80.3047 m 11.566,17.6172 c 0.817,5.3201 -2.015,8.6721 -7.285,9.4411 l -8.125,1.199 -2.519,-16.4917 8.328,-1.2422 c 5.258,-0.789 8.867,2.3086 9.578,6.9258 l 0.023,0.168" /><path
             id="path96"
             style="fill:#ffffff;fill-opacity:1;fill-rule:nonzero;stroke:none"
             d="m 352.406,61.0742 10.625,-0.2461 0.93,54.6019 -10.637,0.234 -0.918,-54.5898" /><path
             id="path98"
             style="fill:#ffffff;fill-opacity:1;fill-rule:nonzero;stroke:none"
             d="m 402.703,62.168 c -14.098,-1.5625 -26.148,9.6093 -28.129,25.1953 l -0.012,0.1484 c -1.984,15.4263 6.672,29.2153 21.399,30.8283 9.035,1.015 14.867,-1.797 19.957,-6.281 l -5.59,-9.5 c -4.176,3.398 -8.242,5.312 -13.027,4.785 -8.078,-0.899 -12.93,-9.1409 -11.742,-18.4573 l 0.011,-0.1562 c 1.192,-9.2969 7.864,-16.4258 16.075,-15.5274 5.472,0.6055 8.515,3.4766 11.793,7.7735 l 7.679,-6.9336 c -4.164,-6.5235 -9.176,-10.8516 -18.414,-11.875" /><path
             id="path100"
             style="fill:#ffffff;fill-opacity:1;fill-rule:nonzero;stroke:none"
             d="m 427.617,85.918 -3.16,11.0078 20.484,5.2932 3.157,-11.0081 -20.481,-5.2929" /><path
             id="path102"
             style="fill:#ffffff;fill-opacity:1;fill-rule:nonzero;stroke:none"
             d="m 451.77,131.367 6.75,2.473 20.82,-51.4181 -9.778,-3.5821 -16.218,40.0472 -6.949,-5.071 -5.79,8.45 11.165,9.101" /><path
             id="path104"
             style="fill:#ffffff;fill-opacity:1;fill-rule:nonzero;stroke:none"
             d="m 553.887,149.57 c -4.692,-4.172 -12.754,-3.203 -17.918,2.141 -5.168,5.367 -5.555,13.16 -0.848,17.351 4.703,4.161 12.766,3.223 17.926,-2.148 5.168,-5.352 5.543,-13.164 0.84,-17.344" /></g></g></g></g></svg>